<svg width="22" height="22" viewBox="0 0 22 22" fill="none" xmlns="http://www.w3.org/2000/svg">
<path d="M4.77076 10.3818L15.8395 1.73651C15.8684 1.71374 15.9032 1.69959 15.9398 1.69569C15.9764 1.69178 16.0134 1.69828 16.0464 1.71443C16.0795 1.73058 16.1074 1.75574 16.1268 1.78701C16.1462 1.81828 16.1564 1.85439 16.1562 1.8912V3.78919C16.1562 3.9095 16.0998 4.02491 16.0065 4.09857L7.16719 11.0006L16.0065 17.9026C16.1022 17.9762 16.1562 18.0916 16.1562 18.212V20.11C16.1562 20.2745 15.9672 20.3653 15.8395 20.2646L4.77076 11.6193C4.67668 11.5459 4.60057 11.4521 4.54823 11.3449C4.49588 11.2376 4.46868 11.1199 4.46868 11.0006C4.46868 10.8813 4.49588 10.7635 4.54823 10.6563C4.60057 10.5491 4.67668 10.4552 4.77076 10.3818Z" fill="white"/>
</svg>
