<svg width="22" height="19" viewBox="0 0 22 19" fill="none" xmlns="http://www.w3.org/2000/svg">
<path d="M7.76005 13.8938H14.2417C14.3497 13.8938 14.4381 13.8054 14.4381 13.6974V11.635C14.4381 11.527 14.3497 11.4386 14.2417 11.4386H13.2596C13.1516 11.4386 13.0632 11.527 13.0632 11.635V12.5189H8.93853V11.635C8.93853 11.527 8.85015 11.4386 8.74212 11.4386H7.76005C7.65203 11.4386 7.56364 11.527 7.56364 11.635V13.6974C7.56364 13.8054 7.65203 13.8938 7.76005 13.8938ZM16.1076 10.8739C16.1076 11.1344 16.2111 11.3842 16.3953 11.5684C16.5794 11.7525 16.8292 11.856 17.0897 11.856C17.3501 11.856 17.5999 11.7525 17.7841 11.5684C17.9683 11.3842 18.0717 11.1344 18.0717 10.8739C18.0717 10.6135 17.9683 10.3637 17.7841 10.1795C17.5999 9.99533 17.3501 9.89186 17.0897 9.89186C16.8292 9.89186 16.5794 9.99533 16.3953 10.1795C16.2111 10.3637 16.1076 10.6135 16.1076 10.8739ZM21.9755 6.75907L21.3936 5.74263C21.3674 5.69782 21.3246 5.66519 21.2745 5.65185C21.2243 5.63851 21.1709 5.64555 21.126 5.67143L19.8812 6.39816L17.9588 1.09009C17.8573 0.773363 17.6578 0.497084 17.389 0.301146C17.1203 0.105208 16.7962 -0.000249616 16.4636 4.43678e-07H5.82538C4.97344 4.43678e-07 4.21725 0.549958 3.95455 1.36262L2.12299 6.40062L0.875769 5.67389C0.830803 5.648 0.777421 5.64096 0.72728 5.6543C0.67714 5.66764 0.634315 5.70028 0.608156 5.74509L0.0262822 6.75907C-0.0277314 6.85237 0.00418578 6.97022 0.0974821 7.02423L1.5804 7.88845L1.2244 8.87051C1.19494 8.94908 1.18021 9.03255 1.18021 9.11603V17.6649C1.18021 18.0504 1.46992 18.3622 1.82592 18.3622H3.48561C3.7876 18.3622 4.0503 18.1339 4.11413 17.8147L4.30318 16.8891H17.6986L17.8876 17.8147C17.9539 18.1339 18.2141 18.3622 18.5161 18.3622H20.1758C20.5318 18.3622 20.8215 18.0504 20.8215 17.6649V9.11603C20.8215 9.03255 20.8068 8.94908 20.7773 8.87051L20.4213 7.88845L21.9018 7.02423C21.9464 6.99849 21.9791 6.95629 21.9928 6.90671C22.0066 6.85712 22.0004 6.80411 21.9755 6.75907ZM19.0538 9.30262V15.1214H2.94793V9.30262L3.33093 8.2469H18.6708L19.0538 9.30262ZM5.61669 1.96413L5.62897 1.93222L5.63879 1.9003C5.6658 1.81928 5.73945 1.76526 5.82538 1.76526H16.3237L18.1749 6.87201H3.83179L5.61669 1.96413ZM3.92999 10.8739C3.92999 11.1344 4.03346 11.3842 4.21764 11.5684C4.40181 11.7525 4.6516 11.856 4.91206 11.856C5.17252 11.856 5.42231 11.7525 5.60649 11.5684C5.79066 11.3842 5.89413 11.1344 5.89413 10.8739C5.89413 10.6135 5.79066 10.3637 5.60649 10.1795C5.42231 9.99533 5.17252 9.89186 4.91206 9.89186C4.6516 9.89186 4.40181 9.99533 4.21764 10.1795C4.03346 10.3637 3.92999 10.6135 3.92999 10.8739Z" fill="black"/>
</svg>
