<svg id="레이어_1" data-name="레이어 1" xmlns="http://www.w3.org/2000/svg" viewBox="0 0 40 40"><defs><style>.cls-1{fill:#fff;}.cls-1,.cls-2{fill-rule:evenodd;}.cls-2,.cls-3{fill:#231815;}.cls-4{fill:none;}</style></defs><path class="cls-1" d="M245.63,69.24a18.82,18.82,0,0,1-.55,2.1c-2.7,6.63-5.47,13.27-8.14,19.93-3.35,8.33-6.61,16.7-10,25-3,7.42-6.06,14.81-9,22.24s-5.93,15-8.92,22.52c-3.43,8.55-6.9,17.07-10.35,25.61-2.28,5.67-4.51,11.36-6.81,17-2.39,5.94-4.87,11.87-7.26,17.82q-4.1,10.18-8.14,20.39c-2.4,6-4.83,12.05-7.22,18.07-2.13,5.43-4.16,10.85-6.3,16.28-2.25,5.7-4.55,11.38-6.83,17.07-3.08,7.65-6.29,15.26-9.18,23-.94,2.51-1.2,5.33.56,7.84,7,10,14.08,20,21,30.07a4.69,4.69,0,0,0,4.57,2.27,2.06,2.06,0,0,0,2.22-1.47c1.16-3.14,2.46-6.21,3.72-9.29q4.58-11.28,9.14-22.53c2-5.05,4.07-10.1,6.08-15.15s3.92-10.13,6-15.16c3-7.42,6.11-14.8,9.1-22.23,2.84-7,5.6-14,8.4-21,2.37-6,4.72-11.93,7.11-17.88,1.64-4.14,3.31-8.27,5-12.41q3.66-9,7.28-18.07c2-5,4-9.95,5.94-14.92,2.13-5.26,4.29-10.49,6.41-15.73,2.68-6.66,5.32-13.32,8-20,2.37-5.9,4.77-11.77,7.14-17.66,2.74-6.8,5.45-13.61,8.18-20.41,2-5,4.05-9.91,6-14.9,2.17-5.55,4.23-11.14,6.38-16.69,2-5.08,4.07-10.13,6-15.21.46-1.24,1.12-1.92,2.48-1.83.68.07,1.38,0,2.06,0,5.53.32,11.07.64,16.61,1,.75,0,1.49.24,2.24.34,1.43.19,2.87.34,4.29.51,1,.12,2,.19,3,.34,3.2.52,6.41,1,9.62,1.61,3.87.67,7.76,1.3,11.6,2.14,3.17.67,6.28,1.61,9.42,2.49,4.7,1.35,9.44,2.6,14.09,4.15,7,2.35,13.89,5.14,20.68,8.12a233.94,233.94,0,0,1,34,18.63,229.19,229.19,0,0,1,28.24,21.9,234.9,234.9,0,0,1,35,39.75,3.52,3.52,0,0,0,1.36,1.42,4.6,4.6,0,0,0,5.37-1.78c1.91-2.72,3.77-5.5,5.69-8.24q6.68-9.51,13.37-19a6.28,6.28,0,0,0,1.11-3.15c.22-2.26-.73-3.92-2-5.57-5.72-7.31-11.65-14.42-18-21.18A269.8,269.8,0,0,0,449.18,71c-.42-.31-.8-.67-1.19-1a2.83,2.83,0,0,1,.24-.73c2.34-3.53,4.69-7.08,7.06-10.62s4.64-6.93,7-10.38c1.15-1.67.9-3.5.77-5.3-.1-1.34-1.46-1.68-2.37-2.26-5.66-3.54-11.35-7.07-17.09-10.49-2.93-1.75-6-3.25-9-4.89a7.16,7.16,0,0,0-5.32-.38c-.94.25-1.64,1.66-2.31,2.64-4.55,6.81-9.07,13.66-13.62,20.48a6.14,6.14,0,0,1-1.06,1c-5.14-2.25-10.07-4.6-15.11-6.63-6.26-2.51-12.56-4.94-19-7-5.81-1.93-11.75-3.51-17.7-5-5.57-1.41-11.22-2.55-16.85-3.75-2.37-.51-4.77-.9-7.17-1.3-2.83-.47-5.67-1-8.53-1.34-4.69-.51-9.37-.87-14.07-1.22-4-.3-8-.6-12.06-.7C296.27,22,290.72,22,285.16,22A204.14,204.14,0,0,0,259,23.73c-2.85.38-5.71.7-8.57,1.08s-5.58.67-8.32,1.18q-6,1.14-12,2.56c-5.53,1.31-11.08,2.55-16.53,4.14S203,36.2,197.66,38a220,220,0,0,0-26,10.83A273.49,273.49,0,0,0,126.1,76.73a267.56,267.56,0,0,0-40.8,38c-5,5.8-9.7,11.88-14.47,17.9a6.05,6.05,0,0,0-.16,7.73c2.24,3.17,4.44,6.36,6.66,9.53q6.7,9.62,13.45,19.23a3.24,3.24,0,0,0,1.5,1.28c2.09.69,3.7,0,5-1.91,2.66-3.81,5.25-7.65,8.08-11.32,3.39-4.38,7-8.62,10.55-12.85a210.74,210.74,0,0,1,25.19-24.71c4.85-4,9.89-7.81,15-11.53A205.94,205.94,0,0,1,186.6,89.62c6.42-3.19,13-6.08,19.65-8.73s13.63-5,20.54-7.24c4.74-1.51,9.62-2.59,14.46-3.78C242.55,69.55,243.91,69.49,245.63,69.24Z" transform="translate(-18.07 -22)"/><path class="cls-1" d="M360.88,127c-2.22,3.34-4.11,6.25-6,9.15-6.43,9.67-12.9,19.33-19.3,29a6.11,6.11,0,0,0-.74,2.29c-.53,3.14,1.11,5.76,2.17,8.5,2.67,6.9,5.49,13.77,8.23,20.65s5.26,13.56,7.94,20.32c3.92,9.93,7.92,19.82,11.85,29.75s7.88,20.19,11.84,30.27c3.72,9.44,7.49,18.87,11.19,28.32.39,1,.88,1.89,2,1.84,1.42-.1,3,.69,4.12-1.06,1.63-2.55,3.56-4.93,5.22-7.46,1.95-3,3.71-6.09,5.68-9,2.35-3.52,4.92-6.91,7.27-10.45Q426,258.73,439.5,238.35q9.13-13.75,18.3-27.5,8.06-12.14,16.14-24.27c2.4-3.58,4.84-7.16,7.24-10.76a6.64,6.64,0,0,0,0-7.26A260.43,260.43,0,0,0,460.17,144c-1.74-1.81-3.7-1.35-5.7-1.2-.36,0-.75.49-1,.84-1.84,2.5-3.72,5-5.46,7.56-4.28,6.36-8.5,12.76-12.75,19.14-5.19,7.77-10.39,15.51-15.57,23.29q-9.45,14.2-18.87,28.46a15,15,0,0,1-1.28,1.47,17.83,17.83,0,0,1-.87-1.6q-4.44-11.3-8.87-22.6-4.95-12.47-9.95-24.89a2.72,2.72,0,0,1,.31-2.79c1.41-2,2.73-4,4.08-6q9.11-13.5,18.25-27c4.83-7.1,9.75-14.13,14.59-21.21,2-2.89,1.76-6-1-8.11a60.09,60.09,0,0,0-8.88-5.91q-10.31-5.61-20.86-10.78-9-4.38-18.23-8.21c-4.74-2-9.63-3.62-14.51-5.19C349.75,78,345.77,77.06,341.8,76c-3.3-.86-6.6-1.72-9.93-2.47-3.62-.78-7.29-1.48-10.94-2.13-3.44-.58-6.9-1.1-10.36-1.54s-7.09-.81-10.63-1.19a20.22,20.22,0,0,0-2.06,0,1.31,1.31,0,0,0-1.47,1.58,22.42,22.42,0,0,0,.56,4.49c.57,1.87,1.45,3.63,2.18,5.47,2.08,5.2,4.13,10.42,6.22,15.62s4.31,10.5,6.39,15.76a2.62,2.62,0,0,0,2.27,1.9c2,.32,4,.74,6,1.19s4.11,1,6.15,1.51c3.08.75,6.21,1.38,9.25,2.21,2.7.75,5.33,1.66,8,2.55C349.14,122.92,354.85,124.89,360.88,127Z" transform="translate(-18.07 -22)"/><path class="cls-2" d="M245.63,69.24c-1.72.25-3.08.31-4.38.63-4.84,1.19-9.72,2.27-14.46,3.78-6.91,2.21-13.78,4.57-20.54,7.24S193,86.43,186.6,89.62a205.94,205.94,0,0,0-30.52,18.46c-5.08,3.72-10.12,7.5-15,11.53a210.74,210.74,0,0,0-25.19,24.71c-3.59,4.23-7.16,8.47-10.55,12.85-2.83,3.67-5.42,7.51-8.08,11.32-1.31,1.87-2.92,2.6-5,1.91a3.24,3.24,0,0,1-1.5-1.28q-6.75-9.6-13.45-19.23c-2.22-3.17-4.42-6.36-6.66-9.53a6.05,6.05,0,0,1,.16-7.73c4.77-6,9.45-12.1,14.47-17.9a267.56,267.56,0,0,1,40.8-38,273.49,273.49,0,0,1,45.55-27.91,220,220,0,0,1,26-10.83c5.3-1.79,10.56-3.73,15.93-5.3s11-2.83,16.53-4.14q6-1.41,12-2.56c2.74-.51,5.53-.81,8.32-1.18s5.72-.7,8.57-1.08A204.14,204.14,0,0,1,285.16,22c5.56,0,11.11-.06,16.65.06,4,.1,8.05.4,12.06.7,4.7.35,9.38.71,14.07,1.22,2.86.31,5.7.87,8.53,1.34,2.4.4,4.8.79,7.17,1.3,5.63,1.2,11.28,2.34,16.85,3.75,5.95,1.51,11.89,3.09,17.7,5,6.41,2.1,12.71,4.53,19,7,5,2,10,4.38,15.11,6.63a6.14,6.14,0,0,0,1.06-1c4.55-6.82,9.07-13.67,13.62-20.48.67-1,1.37-2.39,2.31-2.64a7.16,7.16,0,0,1,5.32.38c3,1.64,6.08,3.14,9,4.89,5.74,3.42,11.43,7,17.09,10.49.91.58,2.27.92,2.37,2.26.13,1.8.38,3.63-.77,5.3-2.35,3.45-4.67,6.92-7,10.38s-4.72,7.09-7.06,10.62A2.83,2.83,0,0,0,448,70c.39.33.77.69,1.19,1a269.8,269.8,0,0,1,42.16,36.48c6.37,6.76,12.3,13.87,18,21.18,1.31,1.65,2.26,3.31,2,5.57a6.28,6.28,0,0,1-1.11,3.15q-6.71,9.51-13.37,19c-1.92,2.74-3.78,5.52-5.69,8.24a4.6,4.6,0,0,1-5.37,1.78A3.52,3.52,0,0,1,484.5,165a234.9,234.9,0,0,0-35-39.75,229.19,229.19,0,0,0-28.24-21.9,233.94,233.94,0,0,0-34-18.63c-6.79-3-13.65-5.77-20.68-8.12-4.65-1.55-9.39-2.8-14.09-4.15-3.14-.88-6.25-1.82-9.42-2.49-3.84-.84-7.73-1.47-11.6-2.14-3.21-.56-6.42-1.09-9.62-1.61-1-.15-2-.22-3-.34-1.42-.17-2.86-.32-4.29-.51-.75-.1-1.49-.31-2.24-.34-5.54-.36-11.08-.68-16.61-1-.68-.06-1.38,0-2.06,0-1.36-.09-2,.59-2.48,1.83-2,5.08-4,10.13-6,15.21-2.15,5.55-4.21,11.14-6.38,16.69-2,5-4,9.94-6,14.9-2.73,6.8-5.44,13.61-8.18,20.41-2.37,5.89-4.77,11.76-7.14,17.66-2.68,6.65-5.32,13.31-8,20-2.12,5.24-4.28,10.47-6.41,15.73-2,5-3.95,9.95-5.94,14.92q-3.63,9-7.28,18.07c-1.66,4.14-3.33,8.27-5,12.41-2.39,5.95-4.74,11.92-7.11,17.88-2.8,7-5.56,14-8.4,21-3,7.43-6.11,14.81-9.1,22.23-2.06,5-4,10.11-6,15.16s-4,10.1-6.08,15.15q-4.56,11.26-9.14,22.53c-1.26,3.08-2.56,6.15-3.72,9.29a2.06,2.06,0,0,1-2.22,1.47,4.69,4.69,0,0,1-4.57-2.27c-6.92-10.07-14-20.06-21-30.07-1.76-2.51-1.5-5.33-.56-7.84,2.89-7.74,6.1-15.35,9.18-23,2.28-5.69,4.58-11.37,6.83-17.07,2.14-5.43,4.17-10.85,6.3-16.28,2.39-6,4.82-12,7.22-18.07q4.07-10.18,8.14-20.39c2.39-5.95,4.87-11.88,7.26-17.82,2.3-5.67,4.53-11.36,6.81-17,3.45-8.54,6.92-17.06,10.35-25.61,3-7.5,5.91-15,8.92-22.52s6-14.82,9-22.24c3.35-8.34,6.61-16.71,10-25,2.67-6.66,5.44-13.3,8.14-19.93A18.82,18.82,0,0,0,245.63,69.24Z" transform="translate(-18.07 -22)"/><path class="cls-2" d="M360.88,127c-6-2.08-11.74-4-17.46-6-2.65-.89-5.28-1.8-8-2.55-3-.83-6.17-1.46-9.25-2.21-2-.49-4.09-1-6.15-1.51s-4-.87-6-1.19a2.62,2.62,0,0,1-2.27-1.9c-2.08-5.26-4.27-10.49-6.39-15.76s-4.14-10.42-6.22-15.62c-.73-1.84-1.61-3.6-2.18-5.47a22.42,22.42,0,0,1-.56-4.49,1.31,1.31,0,0,1,1.47-1.58,20.22,20.22,0,0,1,2.06,0c3.54.38,7.1.72,10.63,1.19s6.92,1,10.36,1.54c3.65.65,7.32,1.35,10.94,2.13,3.33.75,6.63,1.61,9.93,2.47,4,1,7.95,2,11.84,3.21,4.88,1.57,9.77,3.23,14.51,5.19q9.25,3.82,18.23,8.21,10.55,5.16,20.86,10.78a60.09,60.09,0,0,1,8.88,5.91c2.72,2.15,2.92,5.22,1,8.11-4.84,7.08-9.76,14.11-14.59,21.21q-9.17,13.46-18.25,27c-1.35,2-2.67,4.07-4.08,6a2.72,2.72,0,0,0-.31,2.79q5,12.44,9.95,24.89,4.45,11.28,8.87,22.6a17.83,17.83,0,0,0,.87,1.6,15,15,0,0,0,1.28-1.47q9.44-14.23,18.87-28.46c5.18-7.78,10.38-15.52,15.57-23.29,4.25-6.38,8.47-12.78,12.75-19.14,1.74-2.57,3.62-5.06,5.46-7.56.25-.35.64-.81,1-.84,2-.15,4-.61,5.7,1.2a260.43,260.43,0,0,1,21.05,24.58,6.64,6.64,0,0,1,0,7.26c-2.4,3.6-4.84,7.18-7.24,10.76q-8.08,12.15-16.14,24.27-9.17,13.76-18.3,27.5-13.58,20.37-27.17,40.73c-2.35,3.54-4.92,6.93-7.27,10.45-2,3-3.73,6.07-5.68,9-1.66,2.53-3.59,4.91-5.22,7.46-1.11,1.75-2.7,1-4.12,1.06-1.14.05-1.63-.85-2-1.84-3.7-9.45-7.47-18.88-11.19-28.32-4-10.08-7.87-20.19-11.84-30.27-3.93-9.93-7.93-19.82-11.85-29.75-2.68-6.76-5.27-13.55-7.94-20.32s-5.56-13.75-8.23-20.65c-1.06-2.74-2.7-5.36-2.17-8.5a6.11,6.11,0,0,1,.74-2.29c6.4-9.7,12.87-19.36,19.3-29C356.77,133.22,358.66,130.31,360.88,127Z" transform="translate(-18.07 -22)"/><path class="cls-3" d="M564.83,288.05c-.14-7.22-.64-14.42-1-21.64,0-.59-.17-1.2-.25-1.8-.49-3.6-1-7.21-1.46-10.82-.39-2.78-.71-5.56-1.24-8.32-.74-3.86-1.6-7.71-2.49-11.54-1-4.43-2-8.88-3.19-13.25-2.31-8.3-5.06-16.49-8.16-24.56A224.62,224.62,0,0,0,536,171.21c-4.15-7.84-8.69-15.48-13.1-23.17a40.38,40.38,0,0,0-2.79-4.17,4,4,0,0,0-6,.15l-7.36,10.64c-5.06,7.29-10.31,14.42-15.1,21.91-4.37,6.83-9.23,13.35-13.85,20q-8,11.63-16,23.26c-3.62,5.24-7.25,10.46-10.85,15.72-4.3,6.34-8.54,12.71-12.83,19.06-4.76,7.05-9.5,14.08-14.31,21.09q-10.5,15.31-21,30.59c-.94,1.35-2.19,2.5-3.11,3.86-1.06,1.56-1.73,3.39-2.91,4.83a8.56,8.56,0,0,0-2,7.18,24,24,0,0,0,1.32,4.51q5,12.56,10,25.09c1.2,3,2.4,5.9,3.68,8.8a2.18,2.18,0,0,0,1.18,1.19,4,4,0,0,0,4.86-1.83c3.05-4.36,6.11-8.72,9.12-13.1q11.17-16.21,22.29-32.49c4.4-6.37,8.85-12.7,13.24-19.09,3.86-5.63,7.65-11.3,11.5-16.95,3.73-5.43,7.55-10.83,11.28-16.26,5.35-7.82,10.67-15.68,16-23.51,3-4.4,5.92-8.82,8.91-13.23,1.28-1.85,2.62-3.67,4-5.63a8.74,8.74,0,0,1,.75.88,9.69,9.69,0,0,1,.56,1.23c2.15,7,4.54,14,6,21.17.32,1.69.85,3.35,1.23,5,.51,2.28,1,4.59,1.43,6.89.48,2.91.86,5.84,1.26,8.77.52,3.82,1.16,7.64,1.56,11.48.35,3.48.42,7,.69,10.47.81,11-.14,21.86-1.37,32.73-.32,2.71-.74,5.4-1.09,8.11-.07.39,0,.75-.09,1.14-.37,2.61-.76,5.22-1.19,7.84-.27,1.63-.58,3.27-1,4.89-.46,2-1.05,3.93-1.54,5.91-.74,3.07-1.35,6.19-2.22,9.23-1.05,3.62-2.26,7.21-3.5,10.78-1.38,4-2.7,8-4.34,11.87-2.57,6-5.14,12.12-8.16,17.94-3.59,6.92-7.43,13.74-11.61,20.32a216.39,216.39,0,0,1-12.67,17.78c-4.79,6.09-10,11.8-15.08,17.69-1.15,1.35-2.41,2.2-4.31,1.79a11.31,11.31,0,0,0-2.73,0,3.07,3.07,0,0,0-3.39,2.94,11.45,11.45,0,0,0,.32,3.34c.16.78.46,1.5-.23,2.13-.88.78-1.81,1.51-3,2.52-.49-1.24-.89-2.1-1.18-3-.44-1.52-.8-3.08-1.23-4.61-1.85-6.5-3.71-13-5.51-19.49-.65-2.34-2.28-3.05-4.29-1.73-1.14.74-2.22,1.6-3.32,2.4-2.18,1.58-2.6,2.68-1.86,5.22,1.38,4.81,2.8,9.61,4.17,14.42a7.44,7.44,0,0,1,0,1.66,12,12,0,0,1-1.21-.67c-4.35-3.05-8.74-6.05-13-9.18a3.06,3.06,0,0,0-3.78-.29,57.9,57.9,0,0,0-4.84,3.42,2.67,2.67,0,0,0,.24,4.41c1.09.82,2.24,1.57,3.35,2.34q8.88,6.19,17.75,12.4c1,.67,1.88,1.43,2.71,2.08-.12.42-.11.64-.2.7-3.51,2.66-6.91,5.48-10.59,7.87-2.15,1.42-4,.48-5-1.86-.22-.48-.45-1-.71-1.44q-3.81-7.11-7.61-14.24a2.37,2.37,0,0,1-.21-2.55,4.22,4.22,0,0,0-.12-3.95c-1-2.15-2.4-2.69-4.55-1.59q-4,2.12-8,4.3c-1.6.89-2.15,1.71-1.7,3.08s1,3.5,2.75,3.55c2,.09,2.59,1.19,3.32,2.54,2.47,4.65,4.91,9.27,7.43,13.89.91,1.65,2,3.23.84,5.22-.14.24,0,.63-.07.89a3.34,3.34,0,0,1-.7,1.38,17,17,0,0,1-5.41,3c-.4-.75-.79-1.39-1.07-2.07q-5-11.73-9.9-23.48c-1.05-2.54-2.22-3-4.75-1.93-1,.45-2.06.94-3.11,1.39-2.34,1-2.81,2-1.85,4.43.78,2,1.67,3.91,2.48,5.85s1.51,3.72,2.27,5.58c-.14.12-.3.24-.43.36-.67-.41-1.37-.81-2-1.25-3.67-2.43-7.4-4.79-11-7.37a6.06,6.06,0,0,0-6.23-.61c-.85.32-1.68.68-2.5,1-2,.88-2.47,1.79-2,3.95a8.53,8.53,0,0,0,.44,1.29q5.1,11.94,10.18,23.89c.33.82.55,1.67.88,2.7l-8.53,3.14c-.07-.94-.12-1.5-.16-2.07-.17-2-.2-4.1-.54-6.11-.36-2.17-1-4.29-1.51-6.43-1.21-5-2.48-10-3.61-15.08-.29-1.35-1-1.85-2.21-1.63-2.22.38-4.45.85-6.65,1.39a1.78,1.78,0,0,0-1.35,2.1,13.34,13.34,0,0,0,.28,1.79q2.49,10.43,5,20.85a11.13,11.13,0,0,1,.26,1.33,3.88,3.88,0,0,1-2.17,3.48c-1.08.4-2,0-3-1.41a6.67,6.67,0,0,1-1-2c-.46-1.6-.81-3.23-1.2-4.86q-1.31-5.4-2.62-10.81c-.66-2.62-1.32-5.25-2-8.12-1.46.14-2.72.23-4,.42-.76.12-1.46.45-2.19.57-3.38.57-3.85.88-3.14,4.74.08.3.18.59.25.88,1.45,6.05,2.82,12.13,4.34,18.16.69,2.69,1.25,5.49,2.91,7.86.27.4.48.86.89,1.61-1.37.38-2.51.71-3.64,1-.66.18-1.35.22-2,.37-2.21.48-4.41,1.08-6.63,1.45-2.91.48-5.86.76-8.78,1.15-.37,0-.74.21-1.11.27l-4.5.56a2.24,2.24,0,0,1-2.27-1.16c-2.85-4-5.74-8-8.6-12.06-1.28-1.78-1.28-1.83,0-3.56,2.77-3.62,5.49-7.26,8.31-10.84a4.44,4.44,0,0,0,1-3.14c-.08-1.38-.24-1.61-1.6-1.64-2.66,0-5.32,0-8,0a2.4,2.4,0,0,0-2.26,1.21c-.95,1.47-2,2.88-3,4.27-.52.68-1.13,1.27-1.71,1.89a30.69,30.69,0,0,1-.4-5.43c0-1.66-.22-1.88-1.81-1.92-2-.05-4,0-5.92,0s-2.1.29-2.1,2.12q0,13.71,0,27.37c0,1.5,0,3,0,4.6H287.6c-.51-2.9-.51-2.9-2.89-3.66V498.48a4.42,4.42,0,0,1,.8-.31c1.77-.41,1.8-.44,1.84-2.21,0-1,0-2,0-3a1.23,1.23,0,0,0-1.38-1.41H274.11c-.91,0-1.44.39-1.44,1.35,0,1.22,0,2.45.11,3.65.07.51.5,1.29.89,1.38,1.56.31,1.57,1.35,1.56,2.57,0,5.7,0,11.41,0,17.1a15.69,15.69,0,0,1-.05,2.28c-.07.48-.36,1.27-.65,1.32-1.49.22-1.83,1.36-2.3,2.76-2.3-.38-4.55-.73-6.75-1.08,0-.38-.05-.49,0-.53.43-.53.85-1,1.29-1.55a17.68,17.68,0,0,0,4.46-11.22c.12-1.92-.42-2.45-2.29-2.67-.85-.09-1.69-.05-2.51-.18-2.92-.5-5.82-1.06-8.74-1.55-1.12-.18-2.28-.21-3.41-.31a1.66,1.66,0,0,0-2,1.64c-.19,1.82-.38,3.62-.54,5.44-.1,1.09.42,1.63,1.53,1.83,1.45.23,2.9.66,4.45,1-1.53,1.91-3.65,2.64-5.3,2a10.81,10.81,0,0,1-7-9.82,10.92,10.92,0,0,1,6.31-10.08c1.39-.74,3.07-1.54,4.78-.58a13.46,13.46,0,0,1,5.29,4.53c1.3,2.06,3,2.27,5,.82a24.72,24.72,0,0,1,2.36-1.78c1.95-1.06,2.36-3.3,1.05-5.38a14.81,14.81,0,0,0-6.29-5.76,26.07,26.07,0,0,0-12-2,12.83,12.83,0,0,0-6.26,1.85A18,18,0,0,0,237.5,498a24.69,24.69,0,0,0-.95,15c.42,1.66,1,3.26,1.62,5.31l-11.74-3.13c.87-2.32,1.6-4.37,2.39-6.4,2.64-6.86,5.31-13.72,8-20.6a13.34,13.34,0,0,0,.58-2.65,1.92,1.92,0,0,0-1.31-2.17,56.57,56.57,0,0,0-5.31-2c-1.66-.54-2.58,0-3.21,1.61-1.37,3.61-2.7,7.24-4.08,10.84a12.86,12.86,0,0,1-1.05,1.77,5.33,5.33,0,0,1-.52-.92q-1.53-6.87-3-13.78c-1-4.74-1.15-4.88-5.81-6.36a6.89,6.89,0,0,0-4.39-.22c-.39,1-.85,2-1.24,3.07-3,7.93-6.13,15.88-9.13,23.83-1.41,3.76-1.35,3-4.27,1.73-2-.86-4-1.92-6.43-3.12,1.12-.54,1.74-.76,2.29-1.11,1.72-1.11,3.72-2,5.06-3.42,5.56-6.06,8-13.11,6.15-21.39a15.24,15.24,0,0,0-10.59-11.75c-8.79-3.05-17,.79-21.79,7.91A21.81,21.81,0,0,0,165,485a6.54,6.54,0,0,1-.19,1.59,45.47,45.47,0,0,1-8.58-5.78,3.23,3.23,0,0,1,.24-.72l17-22.86c1.54-2.07,1.34-3.94-.68-5.45-.92-.69-1.83-1.37-2.76-2-2-1.45-3.38-1.26-4.83.69-1.33,1.77-2.57,3.57-3.9,5.33-.62.83-1.33,1.58-2.11,2.48l-5.35-4a4.36,4.36,0,0,1,.37-.88c1.67-2.26,3.37-4.49,5.07-6.74,1.49-2,1.29-3.83-.59-5.29-1-.75-1.95-1.45-2.95-2.15-2.33-1.7-3.56-1.5-5.27.83-4.62,6.24-9.2,12.48-13.82,18.69-.93,1.27-2,2.47-3.08,3.89-.8-.67-1.48-1.13-2-1.7-4.83-5-9.73-9.84-14.42-14.91A223.72,223.72,0,0,1,98,421.64a3.79,3.79,0,0,1-.43-4c.59-1.32,1.1-2.67,1.63-4,2.94-7.47,5.83-15,8.82-22.38s6.08-15,9.07-22.45c2.08-5.26,4-10.58,6.07-15.83,2.38-6,4.86-12,7.24-18s4.68-12.1,7-18.15c2.11-5.39,4.27-10.76,6.38-16.17,2-5.05,4-10.11,5.95-15.15,2.14-5.4,4.33-10.78,6.45-16.19,1.21-3.09,2.28-6.23,3.48-9.33,1.61-4.17,3.31-8.29,4.95-12.43l6.41-16.24a17.86,17.86,0,0,0,1.44-5.91,11.25,11.25,0,0,0-2.27-7.32c-6.71-9.31-13.23-18.74-19.7-28.22a4.93,4.93,0,0,0-5.16-2.36,1.83,1.83,0,0,0-1.79,1.39c-1,2.85-2.19,5.65-3.31,8.46q-4,10.33-8.12,20.66c-1.68,4.22-3.34,8.41-5,12.62-1.78,4.47-3.58,8.95-5.33,13.42s-3.38,8.73-5.11,13.07-3.54,8.62-5.25,12.95c-1.84,4.63-3.62,9.28-5.44,13.91-1.69,4.27-3.42,8.52-5.09,12.79-2,5.21-4,10.43-6,15.64-2.43,6.16-4.92,12.29-7.34,18.48-2.06,5.25-4,10.55-6,15.81q-3.66,9.39-7.39,18.72c-.61,1.53-1.3,3-2,4.5a4.61,4.61,0,0,0-.54,0c-1.28-4.07-2.62-8.11-3.86-12.21-.84-2.81-1.55-5.67-2.28-8.52-.59-2.26-1.13-4.52-1.64-6.8-.44-1.92-.79-3.84-1.19-5.78-.51-2.5-1.15-5-1.51-7.54-.5-3.3-.56-6.65-1.16-9.92-1.07-5.87-.94-11.82-1.53-17.71-.93-9.21.59-18.37.88-27.54a8.85,8.85,0,0,1,.18-1.13q.77-5.28,1.51-10.57c0-.3,0-.61.06-.91.4-2.61.75-5.24,1.25-7.84.41-2.23,1-4.43,1.5-6.64.72-3.23,1.31-6.51,2.22-9.71,1.34-4.72,2.89-9.38,4.37-14.06a167.52,167.52,0,0,1,8.27-21.1c3-6.29,6.26-12.44,9.47-18.61,1.51-2.89,1.57-5.61-.35-8.32-2.25-3.15-4.47-6.33-6.69-9.51-4.47-6.42-8.9-12.86-13.41-19.25a3.94,3.94,0,0,0-6.32.12c-2.93,4.8-5.89,9.57-8.68,14.44a239.6,239.6,0,0,0-14.87,30.94c-1.67,4.21-3.27,8.46-4.76,12.75-1.57,4.51-3.13,9-4.41,13.62-1.56,5.54-2.89,11.16-4.21,16.75-.9,3.84-1.77,7.68-2.4,11.57-.87,5.55-1.65,11.11-2.25,16.68-.67,6.28-1.4,12.57-1.53,18.86-.24,11.69-.62,23.42.53,35.1.5,5.06.84,10.14,1.36,15.21.27,2.63.72,5.25,1.17,7.87s1,5.21,1.48,7.81c.72,3.72,1.35,7.45,2.18,11.15.71,3.09,1.59,6.16,2.49,9.22,2,6.67,3.85,13.4,6.15,20,2.21,6.29,4.82,12.42,7.44,18.55a244.85,244.85,0,0,0,18.26,34.57A267.25,267.25,0,0,0,92.44,484a271.56,271.56,0,0,0,71.41,54.12,268.73,268.73,0,0,0,38.39,16.47c5.5,1.88,11.13,3.44,16.77,5,5.18,1.39,10.44,2.54,15.66,3.76,1.91.44,3.86.8,5.79,1.17,2.77.51,5.52,1.06,8.29,1.44,3.54.51,7.08,1,10.63,1.27,6.81.63,13.62,1.38,20.44,1.63,7.51.29,15.06.31,22.58,0,7.29-.28,14.55-1,21.8-1.69,5.67-.58,11.31-1.33,16.92-2.32,5.38-.95,10.69-2.21,16-3.48,4.64-1.11,9.22-2.4,13.81-3.66A232.79,232.79,0,0,0,399.6,547.4a258.93,258.93,0,0,0,28.7-14.27,278.09,278.09,0,0,0,35.87-24.56,270.53,270.53,0,0,0,31.4-29.8A267,267,0,0,0,520,447.26a271.93,271.93,0,0,0,23.33-43.17,264.88,264.88,0,0,0,10.54-29.26c2.2-7.49,4.2-15,5.65-22.7.37-1.93.79-3.87,1.16-5.8.48-2.68,1.05-5.35,1.43-8.06q.73-5.29,1.25-10.62c.53-5.52,1.2-11,1.39-16.57C565,303.41,565,295.72,564.83,288.05Zm-411.89,179c-1.72,2.38-3.51,4.71-5.56,7.4L142.09,470c1.9-2.77,3.74-5.31,5.9-8,1.7,1.27,3.29,2.37,4.8,3.59A1.45,1.45,0,0,1,152.94,467.05Zm22.34,18.74c-1.73-4,.1-9.43,3.8-12.29,1.81-1.41,3.7-2.67,6.63-2.57a4.46,4.46,0,0,1,3.71,1.89c2.31,2.79,3.36,5.79,2,9.45a12.91,12.91,0,0,1-6.76,7.57C180.42,491.83,177.4,490.66,175.28,485.79Zm39,25.33-7.34-2.64a69.35,69.35,0,0,1,4.4-11c1.74,4.27,2.33,8.73,3.43,13.08Zm87,13.37a1.62,1.62,0,0,1-1.11-1.13,20.69,20.69,0,0,1,.19-4.69,18.8,18.8,0,0,1,4.29,5.5A19,19,0,0,1,301.21,524.49Zm89-21.62c-3.2,1.26-2.82,2.14-4.47-1.76-.84-1.94-1.66-3.91-2.49-5.86a5.47,5.47,0,0,1-.17-.87,3.28,3.28,0,0,1,1.24.22c3,2,6.05,4,9.61,6.36C392.47,501.74,391.41,502.41,390.25,502.87Z" transform="translate(-18.07 -22)"/><path d="M408.77,384.27c-2.18-5.22-4.26-10.49-6.37-15.74-1.71-4.28-3.35-8.57-5.06-12.84-2.06-5.18-4.23-10.34-6.26-15.54s-4-10.56-6.05-15.81c-2.39-6.11-4.87-12.17-7.28-18.27-1.72-4.33-3.36-8.7-5.09-13-2.06-5.18-4.23-10.33-6.28-15.52-3-7.65-5.93-15.32-8.93-23-2.08-5.33-4.24-10.62-6.34-15.95-2.33-5.9-4.59-11.82-6.92-17.7-2.09-5.27-4.26-10.49-6.33-15.76s-4-10.41-6-15.6c-3.07-7.81-6.18-15.58-9.27-23.39-1.81-4.55-3.65-9.1-5.46-13.66-1.33-3.37-2.69-6.76-4-10.15-1.2-3.15-2.31-6.33-3.5-9.5-1.36-3.58-2.76-7.15-4.16-10.71s-2.95-7.42-4.41-11.13l-4.17-10.7c-1-2.58-2.09-5.15-3.18-7.88a13.85,13.85,0,0,1-2.33,0c-1.71-.28-2.51.71-3,2.08-1.63,4.06-3.24,8.14-4.84,12.21-1.79,4.57-3.56,9.15-5.36,13.73-2.05,5.25-4.13,10.49-6.17,15.77-.86,2.25-1.58,4.53-2.43,6.77-1.7,4.45-3.42,8.87-5.15,13.31l-6.1,15.57c-1.78,4.49-3.57,9-5.32,13.48-2,5.11-3.93,10.26-5.94,15.37-2.08,5.34-4.26,10.65-6.36,16-2.64,6.74-5.2,13.51-7.85,20.23-2.7,6.88-5.48,13.72-8.19,20.58-2.17,5.49-4.28,11-6.43,16.47-2,5.06-4,10.1-5.95,15.16-1.75,4.5-3.44,9-5.2,13.52s-3.52,8.66-5.23,13c-1.86,4.7-3.66,9.43-5.47,14.14l-4.25,11c-1.42,3.65-2.83,7.31-4.3,11-2.31,5.78-4.69,11.54-7,17.34-2.15,5.38-4.21,10.82-6.37,16.21-1,2.4-1.88,4.77-1,7.38,2.11.49,234.73.44,236.46,0C410.52,389.57,410.18,387.64,408.77,384.27Zm-59.51-30.53H231.12a8.31,8.31,0,0,1,.09-1.19c.14-.49.36-1,.54-1.48q29.69-75.75,59.33-151.37a3.55,3.55,0,0,1,.51,0c.07,0,.17,0,.19.08.37.83.77,1.65,1.12,2.48l59.48,151.27C351.14,353.62,350.2,353.74,349.26,353.74Z" transform="translate(-18.07 -22)"/><path class="cls-4" d="M291.78,199.79s-.12-.07-.19-.08a3.55,3.55,0,0,0-.51,0q-29.61,75.57-59.33,151.37c-.18.5-.4,1-.54,1.48a8.31,8.31,0,0,0-.09,1.19H349.26c.94,0,1.88-.12,3.12-.2L292.9,202.27C292.55,201.44,292.15,200.62,291.78,199.79Z" transform="translate(-18.07 -22)"/></svg>