<svg width="20" height="20" viewBox="0 0 20 20" fill="none" xmlns="http://www.w3.org/2000/svg">
<path d="M8.85417 0H0.833333C0.372396 0 0 0.372396 0 0.833333V8.85417C0 8.96875 0.09375 9.0625 0.208333 9.0625H8.85417C8.96875 9.0625 9.0625 8.96875 9.0625 8.85417V0.208333C9.0625 0.09375 8.96875 0 8.85417 0ZM7.39583 7.39583H1.66667V1.66667H7.39583V7.39583ZM3.80208 5.46875H5.26042C5.375 5.46875 5.46875 5.375 5.46875 5.26042V3.80208C5.46875 3.6875 5.375 3.59375 5.26042 3.59375H3.80208C3.6875 3.59375 3.59375 3.6875 3.59375 3.80208V5.26042C3.59375 5.375 3.6875 5.46875 3.80208 5.46875ZM8.85417 10.9375H0.208333C0.09375 10.9375 0 11.0312 0 11.1458V19.1667C0 19.6276 0.372396 20 0.833333 20H8.85417C8.96875 20 9.0625 19.9062 9.0625 19.7917V11.1458C9.0625 11.0312 8.96875 10.9375 8.85417 10.9375ZM7.39583 18.3333H1.66667V12.6042H7.39583V18.3333ZM3.80208 16.4062H5.26042C5.375 16.4062 5.46875 16.3125 5.46875 16.1979V14.7396C5.46875 14.625 5.375 14.5312 5.26042 14.5312H3.80208C3.6875 14.5312 3.59375 14.625 3.59375 14.7396V16.1979C3.59375 16.3125 3.6875 16.4062 3.80208 16.4062ZM19.1667 0H11.1458C11.0312 0 10.9375 0.09375 10.9375 0.208333V8.85417C10.9375 8.96875 11.0312 9.0625 11.1458 9.0625H19.7917C19.9062 9.0625 20 8.96875 20 8.85417V0.833333C20 0.372396 19.6276 0 19.1667 0ZM18.3333 7.39583H12.6042V1.66667H18.3333V7.39583ZM14.7396 5.46875H16.1979C16.3125 5.46875 16.4062 5.375 16.4062 5.26042V3.80208C16.4062 3.6875 16.3125 3.59375 16.1979 3.59375H14.7396C14.625 3.59375 14.5312 3.6875 14.5312 3.80208V5.26042C14.5312 5.375 14.625 5.46875 14.7396 5.46875ZM19.7917 10.9375H18.5417C18.4271 10.9375 18.3333 11.0312 18.3333 11.1458V14.6354H16.3021V11.1458C16.3021 11.0312 16.2083 10.9375 16.0938 10.9375H11.1458C11.0312 10.9375 10.9375 11.0312 10.9375 11.1458V19.7917C10.9375 19.9062 11.0312 20 11.1458 20H12.3958C12.5104 20 12.6042 19.9062 12.6042 19.7917V13.4375H14.6354V16.0938C14.6354 16.2083 14.7292 16.3021 14.8438 16.3021H19.7917C19.9062 16.3021 20 16.2083 20 16.0938V11.1458C20 11.0312 19.9062 10.9375 19.7917 10.9375ZM16.0938 18.3333H14.8438C14.7292 18.3333 14.6354 18.4271 14.6354 18.5417V19.7917C14.6354 19.9062 14.7292 20 14.8438 20H16.0938C16.2083 20 16.3021 19.9062 16.3021 19.7917V18.5417C16.3021 18.4271 16.2083 18.3333 16.0938 18.3333ZM19.7917 18.3333H18.5417C18.4271 18.3333 18.3333 18.4271 18.3333 18.5417V19.7917C18.3333 19.9062 18.4271 20 18.5417 20H19.7917C19.9062 20 20 19.9062 20 19.7917V18.5417C20 18.4271 19.9062 18.3333 19.7917 18.3333Z" fill="black"/>
</svg>
