<svg width="57" height="57" viewBox="0 0 57 57" fill="none" xmlns="http://www.w3.org/2000/svg">
<g clip-path="url(#clip0_488_12877)" filter="url(#filter0_d_488_12877)">
<path fill-rule="evenodd" clip-rule="evenodd" d="M24.3898 4.23174C24.377 4.29534 24.3606 4.35815 24.3406 4.41985C24.0986 5.01377 23.8504 5.60857 23.6112 6.20517C23.311 6.95137 23.018 7.70115 22.7152 8.44466C22.4464 9.10934 22.1731 9.77133 21.9088 10.4369C21.6444 11.1025 21.3774 11.7806 21.1095 12.4542C20.8022 13.2201 20.4912 13.9834 20.1821 14.7484C19.9769 15.2563 19.778 15.766 19.5719 16.2712C19.3578 16.8033 19.1356 17.3345 18.9214 17.8675C18.6759 18.4758 18.4349 19.0858 18.192 19.6941C17.977 20.2315 17.7593 20.7735 17.5451 21.3128C17.3543 21.7992 17.1715 22.2847 16.9806 22.7711C16.779 23.2817 16.5729 23.7905 16.3686 24.3002C16.0927 24.9855 15.805 25.6672 15.5461 26.3606C15.4619 26.5854 15.4386 26.838 15.5963 27.0629C16.2235 27.9587 16.8579 28.8545 17.4779 29.7565C17.5192 29.8264 17.5798 29.8828 17.6525 29.9189C17.7252 29.955 17.8068 29.9692 17.8874 29.9599C17.9308 29.965 17.9746 29.9546 18.011 29.9305C18.0474 29.9064 18.0741 29.8701 18.0863 29.8282C18.1894 29.5469 18.3067 29.2719 18.4196 28.996L19.2386 26.9778C19.4178 26.5254 19.6033 26.073 19.7834 25.6206C19.9635 25.1683 20.1346 24.7132 20.321 24.2626C20.5898 23.5979 20.8685 22.9368 21.1373 22.2713C21.3908 21.6442 21.639 21.0171 21.8899 20.3901C22.1023 19.8526 22.3129 19.3214 22.527 18.7884C22.674 18.4176 22.8236 18.0476 22.975 17.6767C23.1931 17.1392 23.4105 16.5997 23.6273 16.058C23.8065 15.6101 23.9804 15.1667 24.1596 14.7215C24.3495 14.2503 24.544 13.7818 24.7339 13.3124C24.9741 12.7158 25.2106 12.1192 25.4507 11.5208C25.6631 10.9923 25.8781 10.4665 26.0905 9.93885C26.336 9.32971 26.5788 8.71967 26.8234 8.11053C27.0026 7.66263 27.1863 7.2228 27.3611 6.77579C27.5564 6.27863 27.741 5.77788 27.9336 5.28071C28.1128 4.82565 28.2974 4.37327 28.4712 3.91821C28.5133 3.80713 28.5725 3.74622 28.6943 3.75428C28.7553 3.76055 28.818 3.75428 28.878 3.75428C29.3735 3.78294 29.8699 3.81161 30.3672 3.84386C30.4344 3.84386 30.5007 3.86536 30.5679 3.87431C30.6952 3.89133 30.8242 3.90477 30.9514 3.92C31.041 3.93075 31.1306 3.93702 31.2202 3.95046C31.507 3.99704 31.7946 4.04004 32.0822 4.09468C32.429 4.1547 32.7775 4.21113 33.1216 4.28638C33.4056 4.3464 33.6843 4.4306 33.9657 4.50943C34.3868 4.63037 34.8115 4.74234 35.2282 4.88119C35.8554 5.0917 36.4727 5.34163 37.0811 5.60857C38.1411 6.07964 39.1601 6.63784 40.1276 7.27744C41.0207 7.86477 41.8667 8.52068 42.658 9.23923C43.8343 10.3042 44.8863 11.4987 45.7941 12.8C45.8218 12.8531 45.8641 12.8973 45.9159 12.9272C46.0023 12.958 46.0965 12.959 46.1835 12.9301C46.2705 12.9012 46.3454 12.8441 46.3962 12.7678C46.5682 12.5241 46.7349 12.2751 46.9069 12.0296C47.3054 11.4617 47.7047 10.8944 48.1049 10.3276C48.1626 10.2441 48.1969 10.1467 48.2044 10.0454C48.2241 9.843 48.139 9.6943 48.0252 9.54649C47.5127 8.89166 46.9813 8.25475 46.4123 7.6492C45.267 6.43489 43.9989 5.34246 42.6284 4.3894C42.5899 4.36163 42.5567 4.32938 42.5218 4.29982C42.5255 4.27704 42.5328 4.25498 42.5433 4.23442C42.753 3.91821 42.9635 3.6002 43.1759 3.28309C43.3883 2.96598 43.5916 2.6623 43.8031 2.35325C43.9062 2.20366 43.8838 2.03973 43.8721 1.87848C43.8631 1.75845 43.7413 1.72799 43.6597 1.67603C43.1526 1.35892 42.6428 1.04271 42.1284 0.736344C41.8659 0.57958 41.5908 0.44521 41.322 0.2983C41.1723 0.227004 41.0009 0.21641 40.8435 0.268739C40.7593 0.291133 40.6966 0.417441 40.6366 0.505229C40.2289 1.11527 39.8239 1.72888 39.4153 2.33982C39.3876 2.37332 39.356 2.40339 39.3212 2.4294C38.8606 2.22784 38.4189 2.01733 37.9664 1.83548C37.4064 1.61064 36.8419 1.39296 36.264 1.20843C35.7434 1.03554 35.2111 0.894004 34.678 0.76053C34.1825 0.627057 33.6762 0.522249 33.1718 0.414753C32.9585 0.369068 32.7444 0.334132 32.5293 0.2983C32.2758 0.256197 32.0213 0.20872 31.765 0.178263C31.3448 0.132578 30.9254 0.100329 30.5043 0.0689762C30.1459 0.0421024 29.7875 0.0152285 29.4237 0.00627057C28.9273 0 28.43 0 27.9318 0C27.1501 0.00166127 26.3692 0.0534249 25.5941 0.154973C25.3387 0.189013 25.0825 0.217678 24.8253 0.251718C24.5682 0.285759 24.3262 0.311737 24.0807 0.357422C23.7223 0.425503 23.3639 0.501944 23.0055 0.586746C22.5046 0.704095 22.01 0.815174 21.519 0.957605C21.028 1.10004 20.5656 1.27203 20.0916 1.43327C19.2951 1.70658 18.517 2.03062 17.7619 2.40342C16.3219 3.10117 14.9537 3.93825 13.677 4.90269C12.3431 5.90698 11.1179 7.04785 10.0212 8.30671C9.57318 8.82627 9.15205 9.37091 8.72465 9.91018C8.6418 10.0058 8.59502 10.1274 8.5924 10.2538C8.58978 10.3803 8.63149 10.5037 8.71031 10.6026C8.91102 10.8866 9.10814 11.1724 9.30706 11.4563C9.70788 12.0308 10.1096 12.605 10.5122 13.1789C10.5439 13.2299 10.5905 13.27 10.6457 13.2936C10.8339 13.3554 10.9781 13.2936 11.0937 13.1225C11.3321 12.7812 11.5641 12.4372 11.8177 12.1085C12.1215 11.7161 12.4449 11.3363 12.763 10.9574C13.4525 10.1577 14.2078 9.41728 15.021 8.74386C15.4547 8.38554 15.9072 8.04424 16.365 7.71101C17.2275 7.08195 18.1428 6.52867 19.1006 6.05737C19.6759 5.77161 20.2654 5.51272 20.8613 5.27534C21.4572 5.03795 22.0826 4.82744 22.7017 4.62678C23.1264 4.49152 23.5637 4.39477 23.9974 4.28817C24.113 4.25951 24.2357 4.25413 24.3898 4.23174Z" fill="white"/>
<path fill-rule="evenodd" clip-rule="evenodd" d="M34.7165 9.40575C34.5176 9.70494 34.3473 9.96562 34.1789 10.2254C33.6027 11.0916 33.023 11.957 32.4495 12.8232C32.414 12.8865 32.3915 12.9562 32.3832 13.0283C32.3357 13.3096 32.4827 13.5443 32.5777 13.7898C32.8169 14.4079 33.0696 15.0233 33.3151 15.6396C33.5606 16.2559 33.7864 16.8543 34.0265 17.4598C34.3778 18.3494 34.7362 19.2353 35.0883 20.1248C35.4467 21.0278 35.7944 21.9334 36.1483 22.8364C36.4825 23.682 36.8194 24.5268 37.1519 25.3733C37.1868 25.4629 37.2307 25.5426 37.3311 25.5381C37.4583 25.5292 37.5999 25.5999 37.7002 25.4432C37.8463 25.2147 38.0192 25.0015 38.168 24.7749C38.3427 24.5062 38.5004 24.2294 38.6769 23.9687C38.8875 23.6534 39.1177 23.3497 39.3283 23.0326C40.1413 21.8173 40.9528 20.6011 41.7628 19.384C42.3082 18.5629 42.8548 17.7417 43.4025 16.9206C43.884 16.1956 44.3661 15.4709 44.8487 14.7465C45.0638 14.4258 45.2824 14.1051 45.4974 13.7826C45.5606 13.6859 45.5942 13.5729 45.5942 13.4574C45.5942 13.3419 45.5606 13.229 45.4974 13.1323C44.9164 12.3601 44.288 11.6247 43.6158 10.9304C43.4599 10.7683 43.2843 10.8095 43.1051 10.8229C43.0728 10.8229 43.0379 10.8668 43.0155 10.8981C42.8506 11.1221 42.6812 11.346 42.5262 11.5754C42.1418 12.1451 41.7646 12.7184 41.3838 13.2899C40.9188 13.9859 40.4528 14.6793 39.9887 15.3762C39.4242 16.2242 38.8606 17.074 38.2979 17.9257C38.2625 17.972 38.2242 18.016 38.1832 18.0573C38.1548 18.0109 38.1288 17.9631 38.1052 17.914C37.84 17.2392 37.5751 16.5643 37.3105 15.8895C37.0118 15.1448 36.7131 14.4016 36.4144 13.6599C36.3957 13.6197 36.3884 13.5751 36.3933 13.531C36.3982 13.4869 36.4151 13.4451 36.4422 13.41C36.5686 13.2308 36.6868 13.0516 36.8078 12.8725C37.3514 12.0663 37.8965 11.26 38.443 10.4538C38.8758 9.81781 39.3167 9.18807 39.7503 8.55385C39.9251 8.29496 39.9071 8.01637 39.6607 7.82736C39.4116 7.62785 39.1453 7.4507 38.8651 7.29794C38.2492 6.96291 37.6262 6.64102 36.996 6.33227C36.4583 6.0707 35.9139 5.82555 35.3625 5.59683C34.9378 5.41767 34.4996 5.27255 34.0624 5.13191C33.7192 5.01635 33.3626 4.93215 33.006 4.83719C32.7112 4.76015 32.4155 4.68312 32.1171 4.61593C31.7927 4.54606 31.4639 4.48335 31.1369 4.42513C30.8286 4.37317 30.5186 4.32659 30.2086 4.28717C29.8986 4.24776 29.5733 4.21461 29.2561 4.18057C29.1946 4.17744 29.133 4.17744 29.0715 4.18057C29.0527 4.1778 29.0335 4.17964 29.0155 4.18594C28.9976 4.19224 28.9814 4.20281 28.9685 4.21673C28.9555 4.23066 28.9461 4.24753 28.9411 4.26589C28.9361 4.28424 28.9357 4.30354 28.9398 4.32211C28.9425 4.45756 28.9593 4.59236 28.99 4.72432C29.0411 4.89184 29.1199 5.0495 29.1853 5.21432C29.3708 5.68014 29.5554 6.14774 29.7417 6.61355C29.9281 7.07937 30.1288 7.55414 30.3152 8.02533C30.3279 8.07076 30.3541 8.1113 30.3902 8.14166C30.4263 8.17202 30.4707 8.19079 30.5177 8.19553C30.6969 8.22419 30.8761 8.26182 31.0553 8.30213C31.2345 8.34244 31.4227 8.39171 31.6064 8.43739C31.8823 8.50458 32.1628 8.56101 32.4352 8.63536C32.6771 8.70255 32.9128 8.78406 33.152 8.86379C33.6645 9.04026 34.1762 9.21673 34.7165 9.40575Z" fill="white"/>
<path fill-rule="evenodd" clip-rule="evenodd" d="M24.3899 4.23161C24.2358 4.25401 24.1131 4.25938 23.9975 4.28805C23.5638 4.39465 23.1265 4.49139 22.7018 4.62666C22.0827 4.82463 21.4662 5.03604 20.8614 5.27522C20.2566 5.51439 19.6804 5.77149 19.1007 6.05724C18.1428 6.52855 17.2276 7.08183 16.3651 7.71088C15.9108 8.04412 15.4583 8.38273 15.0211 8.74373C14.2082 9.41719 13.4531 10.1576 12.764 10.9572C12.4423 11.3362 12.1225 11.716 11.8187 12.1083C11.5651 12.4371 11.3331 12.7811 11.0947 13.1224C10.9773 13.2899 10.8331 13.3553 10.6467 13.2935C10.5915 13.2698 10.5449 13.2298 10.5132 13.1788C10.11 12.6055 9.70826 12.0313 9.30804 11.4562C9.10912 11.1722 8.912 10.8865 8.71129 10.6025C8.63247 10.5036 8.59076 10.3802 8.59338 10.2537C8.596 10.1272 8.64278 10.0057 8.72562 9.91006C9.15303 9.37258 9.57236 8.82615 10.0222 8.30659C11.1189 7.04773 12.3441 5.90686 13.6779 4.90256C14.9535 3.93802 16.3205 3.10064 17.7593 2.4024C18.5144 2.0296 19.2925 1.70556 20.089 1.43225C20.563 1.27191 21.0352 1.09812 21.5164 0.957484C21.9975 0.816844 22.502 0.703974 22.9975 0.586625C23.3559 0.50242 23.7143 0.425979 24.0727 0.357301C24.3182 0.311615 24.5682 0.284742 24.8173 0.251597C25.0664 0.218453 25.3307 0.188892 25.5861 0.154851C26.3639 0.0529594 27.1475 0.00119499 27.9319 -0.000121151C28.4301 -0.000121151 28.9274 -0.00549592 29.4238 0.00525362C29.7822 0.0142116 30.1451 0.0410854 30.5044 0.0679593C30.9255 0.0993121 31.3449 0.131561 31.7651 0.177246C32.0214 0.205016 32.2758 0.25518 32.5294 0.297283C32.7445 0.333115 32.9586 0.368051 33.1719 0.413736C33.6763 0.521231 34.1826 0.623352 34.6817 0.749659C35.2148 0.884924 35.747 1.02646 36.2676 1.19756C36.842 1.38567 37.4065 1.60335 37.9701 1.82461C38.4226 2.00377 38.8661 2.21697 39.3249 2.41853C39.3597 2.39252 39.3913 2.36244 39.4189 2.32895C39.8275 1.71801 40.2325 1.10439 40.6402 0.494358C40.7003 0.404778 40.763 0.280263 40.8472 0.257868C41.0046 0.207417 41.1753 0.219611 41.3239 0.291908C41.5927 0.438818 41.8687 0.573188 42.1303 0.729952C42.6446 1.03631 43.1545 1.35701 43.6616 1.66964C43.7432 1.7216 43.865 1.75205 43.874 1.87209C43.8856 2.03333 43.908 2.19726 43.805 2.34686C43.5944 2.65591 43.3856 2.96675 43.1778 3.2767C42.9699 3.58664 42.7548 3.91182 42.5452 4.22803C42.5347 4.24858 42.5274 4.27065 42.5237 4.29342C42.5586 4.32299 42.5918 4.35523 42.6303 4.383C43.999 5.33895 45.265 6.43408 46.4079 7.65086C46.9787 8.25642 47.51 8.89333 48.0208 9.54816C48.1382 9.69596 48.2233 9.84467 48.2 10.0471C48.1925 10.1483 48.1581 10.2457 48.1005 10.3293C47.6997 10.8972 47.3004 11.4646 46.9025 12.0313C46.7305 12.2767 46.5638 12.5258 46.3918 12.7694C46.341 12.8457 46.2661 12.9029 46.1791 12.9318C46.0921 12.9606 45.9979 12.9596 45.9115 12.9289C45.8597 12.8989 45.8174 12.8548 45.7897 12.8017C44.8819 11.5004 43.8299 10.3058 42.6536 9.2409C41.8623 8.52235 41.0163 7.86644 40.1232 7.27911C39.1557 6.63951 38.1367 6.0813 37.0767 5.61024C36.4683 5.3415 35.8537 5.09337 35.2238 4.88286C34.8071 4.74401 34.3824 4.63203 33.9613 4.5111C33.6799 4.43227 33.4012 4.34807 33.1172 4.28805C32.7731 4.2128 32.4246 4.15637 32.0778 4.09635C31.7902 4.04618 31.5026 3.99871 31.2158 3.95213C31.1262 3.93869 31.0366 3.93242 30.947 3.92167C30.8198 3.90644 30.6908 3.893 30.5635 3.87598C30.4963 3.86703 30.43 3.84821 30.3628 3.84553C29.8655 3.81328 29.3691 3.78461 28.8736 3.75595C28.8136 3.75057 28.7509 3.75595 28.6899 3.75595C28.5681 3.74788 28.5107 3.8088 28.4668 3.91988C28.2921 4.37494 28.1084 4.82732 27.9292 5.28238C27.7366 5.77955 27.552 6.2803 27.3567 6.77746C27.1775 7.22536 26.9982 7.66788 26.819 8.1122C26.5744 8.72134 26.3316 9.33138 26.0861 9.94052C25.8737 10.4681 25.6587 10.994 25.4463 11.5225C25.2062 12.1182 24.9697 12.7148 24.7295 13.3141C24.5396 13.7835 24.3451 14.252 24.1552 14.7232C23.976 15.1711 23.8012 15.6145 23.6229 16.0597C23.4061 16.5972 23.1887 17.1367 22.9706 17.6784C22.8219 18.0493 22.6722 18.4192 22.5226 18.7901C22.3085 19.3231 22.0979 19.8579 21.8855 20.3918C21.6346 21.0188 21.3864 21.6459 21.1329 22.2729C20.8641 22.9385 20.5854 23.5996 20.3166 24.2643C20.1374 24.7122 19.9582 25.1699 19.779 25.6223C19.5998 26.0747 19.4206 26.5271 19.2342 26.9794L18.4152 28.9977C18.3023 29.2736 18.185 29.5486 18.0819 29.8299C18.0697 29.8718 18.043 29.908 18.0066 29.9321C17.9702 29.9562 17.9264 29.9667 17.883 29.9615C17.8024 29.9709 17.7208 29.9567 17.6481 29.9206C17.5754 29.8845 17.5148 29.8281 17.4735 29.7582C16.8535 28.8561 16.2191 27.9612 15.5919 27.0645C15.4342 26.8397 15.4575 26.5871 15.5417 26.3622C15.8006 25.6689 16.0883 24.9872 16.3642 24.3019C16.5685 23.7922 16.7746 23.2834 16.9762 22.7728C17.1671 22.2864 17.3499 21.8008 17.5407 21.3144C17.7549 20.7769 17.9726 20.2395 18.1876 19.6957C18.4305 19.0875 18.6715 18.4774 18.917 17.8692C19.1312 17.3362 19.3534 16.805 19.5675 16.2729C19.7736 15.765 19.9725 15.2553 20.1777 14.75C20.4868 13.985 20.7978 13.2218 21.1051 12.4559C21.3739 11.7841 21.6338 11.1122 21.9044 10.4386C22.175 9.76494 22.442 9.11101 22.7108 8.44633C23.0109 7.69924 23.3039 6.94946 23.6068 6.20684C23.846 5.61024 24.0942 5.01543 24.3362 4.42152C24.3578 4.35932 24.3757 4.29591 24.3899 4.23161Z" fill="white"/>
<path fill-rule="evenodd" clip-rule="evenodd" d="M34.7164 9.40566C34.1788 9.21934 33.6645 9.04734 33.151 8.86819C32.9145 8.78846 32.6788 8.70694 32.4342 8.63976C32.1654 8.56541 31.8814 8.50897 31.6054 8.44179C31.4217 8.39789 31.2389 8.35221 31.0543 8.30652C30.8698 8.26084 30.6959 8.22859 30.5167 8.19992C30.4698 8.19519 30.4253 8.17642 30.3892 8.14606C30.3531 8.11569 30.327 8.07515 30.3142 8.02972C30.1279 7.55853 29.9316 7.09003 29.7408 6.61795C29.5499 6.14586 29.3698 5.68453 29.1843 5.21872C29.1189 5.05389 29.0401 4.89623 28.989 4.72872C28.9583 4.59676 28.9415 4.46196 28.9388 4.3265C28.9347 4.30793 28.9352 4.28864 28.9401 4.27028C28.9451 4.25192 28.9545 4.23506 28.9675 4.22113C28.9804 4.2072 28.9966 4.19663 29.0145 4.19033C29.0325 4.18403 29.0517 4.18219 29.0705 4.18497C29.132 4.18183 29.1936 4.18183 29.2551 4.18497C29.5723 4.21901 29.8913 4.24947 30.2076 4.29157C30.5239 4.33367 30.8276 4.38115 31.1359 4.42952C31.4629 4.48775 31.7918 4.55045 32.1161 4.62033C32.4145 4.68751 32.7102 4.76455 33.005 4.84159C33.3634 4.93117 33.7218 5.02075 34.0668 5.12914C34.504 5.26978 34.9422 5.41848 35.3669 5.59405C35.9201 5.82218 36.4645 6.06733 37.0004 6.3295C37.63 6.63766 38.253 6.95954 38.8695 7.29517C39.1497 7.44792 39.416 7.62508 39.6651 7.82458C39.908 8.01718 39.9259 8.29219 39.7547 8.55107C39.3211 9.1853 38.8802 9.81504 38.4474 10.4511C37.8997 11.2549 37.3546 12.0611 36.8122 12.8697C36.6912 13.0489 36.573 13.2343 36.4466 13.4072C36.4195 13.4423 36.4026 13.4842 36.3977 13.5282C36.3928 13.5723 36.4001 13.6169 36.4188 13.6571C36.7175 14.4 37.0162 15.1432 37.3149 15.8867C37.5807 16.5604 37.8456 17.2352 38.1096 17.9112C38.1332 17.9603 38.1592 18.0081 38.1876 18.0546C38.2286 18.0132 38.2669 17.9692 38.3023 17.9229C38.8662 17.0731 39.4298 16.2233 39.9931 15.3734C40.4572 14.6765 40.9232 13.9832 41.3882 13.2871C41.769 12.7156 42.1462 12.1423 42.5306 11.5726C42.6856 11.3424 42.855 11.1193 43.0199 10.8954C43.0423 10.864 43.0772 10.8228 43.1095 10.8201C43.2887 10.8067 43.4679 10.7655 43.6202 10.9276C44.2924 11.6219 44.9208 12.3573 45.5018 13.1295C45.565 13.2262 45.5986 13.3392 45.5986 13.4547C45.5986 13.5701 45.565 13.6831 45.5018 13.7798C45.2868 14.1023 45.0682 14.423 44.8531 14.7437C44.3705 15.4693 43.8884 16.194 43.4069 16.9178C42.8592 17.7395 42.3126 18.5607 41.7672 19.3812C40.9566 20.5977 40.1451 21.8139 39.3327 23.0298C39.1221 23.3469 38.8919 23.6506 38.6813 23.9659C38.5021 24.2347 38.3471 24.5097 38.1724 24.7721C38.0236 24.9988 37.8507 25.212 37.7046 25.4404C37.6052 25.5972 37.4627 25.53 37.3355 25.5353C37.2333 25.5398 37.1894 25.4592 37.1563 25.3705C36.8238 24.524 36.4869 23.6793 36.1527 22.8336C35.7988 21.9307 35.4484 21.025 35.0927 20.1221C34.7406 19.2325 34.3822 18.3466 34.0309 17.4571C33.7908 16.8515 33.5587 16.2433 33.3195 15.6368C33.0803 15.0304 32.8213 14.4051 32.5821 13.787C32.4871 13.5415 32.3401 13.3069 32.3876 13.0256C32.3959 12.9535 32.4184 12.8837 32.4539 12.8204C33.0274 11.9515 33.6071 11.0862 34.1833 10.2226C34.3472 9.96285 34.5175 9.70217 34.7164 9.40566Z" fill="white"/>
<path d="M52.9908 23.8326C52.9782 23.1858 52.9334 22.5409 52.9012 21.8941C52.9012 21.8412 52.8859 21.7866 52.8788 21.7328C52.834 21.4104 52.7892 21.087 52.7479 20.7636C52.713 20.5146 52.6843 20.2655 52.6368 20.0183C52.5705 19.6725 52.4926 19.3276 52.4137 18.9845C52.3241 18.5877 52.2345 18.1891 52.1279 17.7976C51.9209 17.0541 51.6745 16.3204 51.3967 15.5975C51.1116 14.8343 50.7803 14.0892 50.4048 13.3661C50.033 12.6638 49.6262 11.9794 49.2302 11.2906C49.1553 11.1608 49.0721 11.036 48.9811 10.917C48.9465 10.8797 48.9044 10.8502 48.8575 10.8304C48.8106 10.8107 48.7601 10.8011 48.7092 10.8024C48.6584 10.8036 48.6084 10.8157 48.5625 10.8378C48.5167 10.8599 48.4761 10.8915 48.4434 10.9304L47.784 11.8836C47.3306 12.5366 46.8602 13.1753 46.431 13.8463C46.0394 14.4581 45.603 15.0421 45.19 15.6379C44.7121 16.3324 44.2342 17.0269 43.7563 17.7215C43.432 18.1909 43.1058 18.6585 42.7842 19.1297C42.3989 19.6976 42.0189 20.2682 41.6346 20.837C41.2071 21.4686 40.7824 22.0983 40.3523 22.7263C39.7251 23.6412 39.0979 24.5546 38.4707 25.4665C38.3865 25.5875 38.2745 25.6905 38.1911 25.8123C38.1015 25.952 38.037 26.116 37.9313 26.245C37.8548 26.3317 37.799 26.4346 37.768 26.546C37.737 26.6574 37.7315 26.7744 37.7521 26.8881C37.7783 27.0262 37.8176 27.1615 37.8695 27.2922C38.1681 28.0422 38.4668 28.7914 38.7655 29.5397C38.873 29.8084 38.9805 30.0682 39.0952 30.328C39.1049 30.3519 39.1193 30.3736 39.1374 30.3919C39.1556 30.4102 39.1772 30.4247 39.2009 30.4346C39.2811 30.4633 39.3688 30.4626 39.4484 30.4325C39.528 30.4025 39.5943 30.3451 39.6355 30.2707C39.9097 29.8801 40.1839 29.4895 40.4536 29.0972C41.1202 28.1303 41.7851 27.1608 42.4481 26.1885C42.8424 25.6179 43.2411 25.0509 43.6345 24.4785C43.9803 23.9741 44.3199 23.4662 44.6649 22.9601C44.9982 22.4737 45.3414 21.9899 45.6756 21.5035C46.155 20.803 46.6317 20.0989 47.1093 19.3975C47.3781 19.0034 47.6397 18.6074 47.9076 18.2124C48.0223 18.0466 48.1424 17.8836 48.266 17.708C48.2902 17.7325 48.3124 17.7589 48.3323 17.7869C48.3523 17.8222 48.3693 17.859 48.3834 17.897C48.576 18.5241 48.7902 19.1512 48.921 19.7934C48.9497 19.9448 48.9972 20.0935 49.0312 20.2413C49.0769 20.4456 49.1208 20.6525 49.1594 20.8585C49.2024 21.1192 49.2355 21.3817 49.2714 21.6442C49.3189 21.9864 49.3762 22.3285 49.412 22.6725C49.4425 22.9843 49.4497 23.2996 49.4739 23.6104C49.5464 24.5958 49.4613 25.5686 49.3511 26.5424C49.3215 26.7851 49.2839 27.0261 49.2534 27.2689C49.2472 27.3038 49.2534 27.336 49.2454 27.371C49.2122 27.6048 49.1773 27.8386 49.1388 28.0733C49.1146 28.2193 49.0868 28.3662 49.0492 28.5113C49.007 28.6905 48.9551 28.8634 48.9112 29.0407C48.8449 29.3158 48.7902 29.5952 48.7122 29.8676C48.6182 30.1918 48.5097 30.5134 48.3977 30.8332C48.275 31.1915 48.1567 31.5499 48.0089 31.8965C47.7795 32.434 47.5492 32.9822 47.2786 33.5036C46.9569 34.1235 46.6129 34.7344 46.2383 35.3238C45.887 35.8735 45.508 36.4051 45.1031 36.9166C44.6739 37.4621 44.207 37.9736 43.7519 38.5012C43.6479 38.6222 43.5359 38.6983 43.3657 38.6616C43.2841 38.6517 43.2017 38.6517 43.1202 38.6616C43.0827 38.6578 43.0449 38.6617 43.0091 38.673C42.9732 38.6844 42.94 38.703 42.9117 38.7277C42.8833 38.7524 42.8603 38.7826 42.844 38.8165C42.8278 38.8505 42.8187 38.8874 42.8173 38.9249C42.8121 39.0255 42.8218 39.1264 42.846 39.2241C42.8603 39.294 42.8872 39.3585 42.8254 39.4149C42.7465 39.4848 42.6632 39.5502 42.5566 39.6407C42.5135 39.5296 42.4777 39.4526 42.4517 39.3719C42.4114 39.2358 42.38 39.096 42.3415 38.959C42.1758 38.3767 42.0091 37.7945 41.8478 37.2131C41.7896 37.0035 41.6435 36.9399 41.4634 37.0581C41.3613 37.1244 41.2645 37.2014 41.1659 37.2731C40.9706 37.4146 40.933 37.5132 40.9993 37.7407C41.1229 38.1716 41.2502 38.6016 41.3729 39.0324C41.3785 39.0819 41.3785 39.1317 41.3729 39.1811C41.3357 39.1632 41.2994 39.1432 41.2645 39.1211C40.8747 38.8479 40.4814 38.5792 40.0997 38.2988C40.0543 38.257 39.9963 38.2318 39.9348 38.227C39.8734 38.2223 39.8121 38.2385 39.761 38.2728C39.611 38.3675 39.4659 38.4697 39.3264 38.5792C39.2954 38.6029 39.2707 38.6338 39.2544 38.6693C39.2381 38.7048 39.2308 38.7437 39.233 38.7826C39.2352 38.8216 39.2469 38.8594 39.2671 38.8928C39.2873 38.9262 39.3153 38.9541 39.3488 38.9742C39.4465 39.0477 39.5495 39.1149 39.649 39.1838C40.1794 39.5535 40.7096 39.9238 41.2394 40.2946C41.329 40.3546 41.4079 40.4227 41.4822 40.4809C41.4715 40.5186 41.4724 40.5383 41.4643 40.5436C41.1498 40.7819 40.8452 41.0345 40.5145 41.2486C40.3219 41.3758 40.1561 41.2916 40.0665 41.082C40.0468 41.039 40.0262 40.9924 40.0029 40.953C39.7753 40.5284 39.548 40.1032 39.321 39.6774C39.2963 39.6451 39.2815 39.6064 39.2781 39.566C39.2748 39.5255 39.2831 39.4849 39.3022 39.449C39.3292 39.3935 39.3423 39.3324 39.3405 39.2707C39.3386 39.2091 39.3218 39.1488 39.2914 39.0951C39.2018 38.9026 39.0764 38.8542 38.8838 38.9527C38.6448 39.0793 38.4059 39.2077 38.1669 39.3379C38.0236 39.4176 37.9743 39.4911 38.0146 39.6138C38.0549 39.7365 38.1042 39.9273 38.261 39.9318C38.4402 39.9399 38.4931 40.0384 38.5585 40.1594C38.7789 40.5759 38.9984 40.9898 39.2234 41.4036C39.3049 41.5514 39.4026 41.693 39.2995 41.8712C39.287 41.8927 39.2995 41.9277 39.2932 41.9509C39.2824 41.9967 39.2605 42.0391 39.2296 42.0746C39.0863 42.1933 38.9223 42.2844 38.7458 42.3433C38.7099 42.2761 38.675 42.2188 38.6499 42.1579C38.3512 41.4574 38.0555 40.7563 37.7628 40.0545C37.6687 39.827 37.5639 39.7858 37.3372 39.8817C37.2476 39.922 37.1526 39.9659 37.0586 40.0062C36.8489 40.0958 36.8068 40.1853 36.8919 40.403C36.9627 40.5822 37.0424 40.7533 37.115 40.9271C37.1876 41.1008 37.2503 41.2603 37.3184 41.4269C37.305 41.4377 37.2915 41.4484 37.2799 41.4592C37.2198 41.4224 37.1571 41.3866 37.1007 41.3472C36.7718 41.1295 36.4376 40.9181 36.115 40.687C36.0358 40.6279 35.9419 40.5916 35.8435 40.582C35.7452 40.5724 35.646 40.5898 35.5568 40.6323C35.4807 40.661 35.4063 40.6932 35.3328 40.7219C35.1536 40.8007 35.1115 40.8823 35.1536 41.0758C35.1636 41.1153 35.1768 41.1539 35.193 41.1913C35.4977 41.9044 35.8017 42.6177 36.1052 43.3314C36.1348 43.4048 36.1545 43.481 36.184 43.5732L35.4197 43.8545C35.4135 43.7703 35.409 43.7201 35.4045 43.6691C35.3902 43.4899 35.3875 43.3018 35.357 43.1217C35.3247 42.9274 35.2674 42.7375 35.2217 42.5458C35.1133 42.0979 34.9995 41.65 34.8982 41.1949C34.8723 41.074 34.8086 41.0292 34.7002 41.0489C34.5013 41.0829 34.3015 41.125 34.1044 41.1734C34.0635 41.1826 34.028 41.2075 34.0054 41.2427C33.9827 41.2779 33.9748 41.3206 33.9834 41.3615C33.9883 41.4154 33.9963 41.4689 34.0076 41.5219C34.1575 42.1447 34.3069 42.7673 34.4556 43.3896C34.4658 43.4288 34.4736 43.4686 34.4789 43.5087C34.4789 43.5737 34.4606 43.6373 34.4262 43.6924C34.3919 43.7475 34.3428 43.7919 34.2845 43.8205C34.1877 43.8563 34.1053 43.8205 34.0157 43.6942C33.9764 43.6396 33.9461 43.5791 33.9261 43.515C33.8857 43.3717 33.8544 43.2257 33.8185 43.0796C33.7415 42.7572 33.6635 42.4344 33.5847 42.1113C33.5255 41.8766 33.4655 41.641 33.4055 41.3839C33.2746 41.3964 33.1609 41.4045 33.0471 41.4215C32.9799 41.4323 32.9171 41.4618 32.8517 41.4726C32.5489 41.5236 32.5068 41.5514 32.5704 41.8972C32.5766 41.9241 32.5865 41.95 32.5928 41.976C32.7227 42.518 32.8455 43.0626 32.9816 43.6028C33.0435 43.8438 33.0936 44.0946 33.2424 44.3069C33.2666 44.3427 33.2854 44.3839 33.3221 44.4511C33.1994 44.4851 33.0972 44.5147 32.9951 44.5407C32.9359 44.5568 32.8741 44.5604 32.8159 44.5738C32.6179 44.6168 32.4207 44.6706 32.2218 44.7037C31.9611 44.7467 31.6967 44.7718 31.4351 44.8067C31.402 44.8067 31.3679 44.8256 31.3356 44.8309L30.9324 44.8811C30.892 44.8865 30.8509 44.8794 30.8145 44.8609C30.7782 44.8423 30.7484 44.8131 30.729 44.7772C30.4737 44.4189 30.2147 44.0605 29.9585 43.6968C29.8438 43.5374 29.8438 43.5329 29.9585 43.3779C30.2067 43.0537 30.4504 42.7276 30.7031 42.4069C30.7679 42.3281 30.8 42.2274 30.7927 42.1256C30.7855 42.002 30.7712 41.9814 30.6493 41.9787C30.411 41.9787 30.1726 41.9787 29.9325 41.9787C29.8919 41.9758 29.8514 41.9844 29.8155 42.0036C29.7797 42.0228 29.75 42.0517 29.73 42.0871C29.6449 42.2188 29.5508 42.3451 29.4612 42.4696C29.4146 42.5305 29.359 42.5834 29.3079 42.6389C29.2816 42.4782 29.2696 42.3154 29.2721 42.1525C29.2721 42.0038 29.2524 41.9841 29.1099 41.9805C28.9307 41.976 28.7515 41.9805 28.5795 41.9805C28.4074 41.9805 28.3913 42.0065 28.3913 42.1704C28.3913 42.9892 28.3928 43.8064 28.3958 44.6222C28.3958 44.7566 28.3958 44.8909 28.3958 45.0343H28.1566C28.1109 44.7745 28.1109 44.7745 27.8976 44.7064V42.6828C27.9205 42.6711 27.9445 42.6618 27.9693 42.655C28.1279 42.6183 28.1306 42.6156 28.1342 42.4571C28.1386 42.3675 28.1342 42.2779 28.1342 42.1883C28.1368 42.1714 28.1355 42.154 28.1303 42.1377C28.125 42.1213 28.1161 42.1064 28.104 42.0941C28.092 42.0819 28.0773 42.0726 28.0611 42.067C28.0448 42.0614 28.0275 42.0597 28.0105 42.062H26.938C26.8564 42.062 26.8089 42.097 26.8089 42.183C26.8089 42.2922 26.8089 42.4024 26.8188 42.5099C26.8251 42.5556 26.8636 42.6255 26.8985 42.6335C27.0383 42.6613 27.0392 42.7545 27.0383 42.8638C27.0383 43.3744 27.0383 43.8859 27.0383 44.3956C27.0419 44.4637 27.0401 44.532 27.0329 44.5998C27.0276 44.6428 27.0016 44.7136 26.9756 44.7181C26.8421 44.7378 26.8116 44.8399 26.7695 44.9653C26.5634 44.9313 26.3618 44.8999 26.1647 44.8685C26.1647 44.8345 26.1647 44.8247 26.1647 44.8211C26.2032 44.7736 26.2409 44.727 26.2803 44.6822C26.527 44.4043 26.6684 44.0486 26.6799 43.6771C26.6907 43.5051 26.6423 43.4577 26.4738 43.438C26.3986 43.4299 26.3233 43.4335 26.2498 43.4218C25.9882 43.3771 25.7283 43.3269 25.4667 43.283C25.3663 43.2669 25.2624 43.2642 25.1611 43.2552C25.1394 43.2507 25.1169 43.2511 25.0953 43.2563C25.0737 43.2616 25.0536 43.2717 25.0364 43.2858C25.0192 43.2999 25.0054 43.3176 24.9959 43.3378C24.9865 43.3579 24.9817 43.3799 24.9819 43.4021C24.9649 43.5652 24.9479 43.7264 24.9336 43.8894C24.9246 43.9871 24.9703 44.0355 25.0706 44.0534C25.2006 44.074 25.3305 44.1125 25.4694 44.143C25.3323 44.3141 25.1423 44.3794 24.9945 44.3221C24.8142 44.2546 24.6582 44.1348 24.5465 43.9781C24.4347 43.8213 24.3723 43.6348 24.3673 43.4424C24.3641 43.2534 24.4159 43.0675 24.5162 42.9073C24.6166 42.747 24.7612 42.6193 24.9327 42.5395C25.0572 42.4732 25.2068 42.4015 25.361 42.4875C25.5515 42.5794 25.7149 42.7192 25.835 42.8933C25.9514 43.0779 26.1038 43.0967 26.283 42.9668C26.3499 42.909 26.4205 42.8558 26.4944 42.8073C26.6692 42.7124 26.7059 42.5117 26.584 42.3254C26.4508 42.1019 26.2548 41.9224 26.0204 41.8094C25.6812 41.6658 25.3127 41.6044 24.9452 41.6303C24.7471 41.6362 24.5538 41.6933 24.3843 41.796C24.0473 41.9813 23.7877 42.2809 23.6522 42.6407C23.4834 43.0684 23.4521 43.5381 23.5626 43.9844C23.5994 44.1331 23.6522 44.2764 23.7078 44.4601L22.655 44.1797C22.7338 43.9719 22.7992 43.7882 22.87 43.6064C23.1066 42.9919 23.3458 42.3773 23.5815 41.761C23.6075 41.684 23.6252 41.6044 23.6343 41.5237C23.6417 41.4825 23.6339 41.4401 23.6123 41.4043C23.5907 41.3686 23.5568 41.3419 23.5169 41.3293C23.3614 41.2616 23.2026 41.2018 23.0412 41.1501C22.8924 41.1017 22.81 41.1501 22.7535 41.2943C22.6308 41.6177 22.5116 41.9429 22.3871 42.2654C22.3611 42.3204 22.3312 42.3734 22.2975 42.4239C22.2792 42.3981 22.2636 42.3705 22.2509 42.3415C22.1583 41.9312 22.0687 41.5198 21.9821 41.1071C21.8925 40.6825 21.8781 40.67 21.4615 40.5374C21.336 40.4881 21.1979 40.4812 21.0681 40.5177C21.0332 40.6073 20.9919 40.6968 20.957 40.7927C20.6882 41.503 20.4077 42.2152 20.1389 42.9274C20.0126 43.2642 20.018 43.1961 19.7563 43.0823C19.5771 43.0053 19.3979 42.9103 19.1802 42.8028C19.2499 42.7732 19.3181 42.74 19.3845 42.7034C19.5395 42.604 19.7187 42.5243 19.8388 42.3971C20.337 41.8542 20.5556 41.2227 20.3898 40.4809C20.3431 40.2355 20.23 40.0075 20.0627 39.822C19.8953 39.6364 19.6803 39.5002 19.4409 39.4284C18.6524 39.1552 17.9177 39.4992 17.4885 40.137C17.224 40.5299 17.1113 41.0055 17.1713 41.4753C17.171 41.5232 17.1653 41.571 17.1543 41.6177C16.879 41.4751 16.6211 41.3014 16.3855 41.0999C16.3901 41.0777 16.3973 41.056 16.407 41.0354L17.9302 38.9877C18.0682 38.8022 18.0503 38.6347 17.8693 38.4994C17.7869 38.4376 17.7053 38.3767 17.622 38.3203C17.4428 38.1904 17.3191 38.2074 17.1892 38.3821C17.07 38.5407 16.9589 38.7019 16.8398 38.8596C16.7833 38.9339 16.7206 39.0011 16.6507 39.0817L16.1713 38.7234C16.1793 38.6961 16.1901 38.6696 16.2036 38.6446C16.3541 38.4421 16.5056 38.2424 16.6588 38.0408C16.7923 37.8616 16.7744 37.6977 16.6059 37.5669C16.5163 37.4997 16.4267 37.437 16.3371 37.3743C16.1283 37.222 16.0181 37.24 15.864 37.4487C15.4509 38.0077 15.0406 38.5666 14.6266 39.1229C14.5424 39.2367 14.4474 39.3442 14.3506 39.4714C14.2789 39.4114 14.218 39.3702 14.1714 39.3191C13.7386 38.8712 13.2987 38.4376 12.8784 37.9835C12.2585 37.2959 11.6869 36.5661 11.1679 35.7995C11.1285 35.7494 11.104 35.6893 11.0972 35.6259C11.0904 35.5625 11.1015 35.4985 11.1294 35.4412C11.1823 35.323 11.228 35.202 11.2755 35.0829C11.5389 34.4137 11.7978 33.7392 12.0649 33.0781C12.3319 32.417 12.6105 31.7344 12.8784 31.067C13.0648 30.5958 13.2369 30.1193 13.4223 29.649C13.6356 29.1115 13.8578 28.574 14.0711 28.0366C14.2843 27.4991 14.4904 26.9526 14.6983 26.4107C14.8873 25.9279 15.0809 25.4468 15.2699 24.9622C15.4491 24.5098 15.6283 24.0565 15.8075 23.6051C15.9993 23.1213 16.1955 22.6394 16.3855 22.1548C16.4939 21.878 16.5898 21.5967 16.6973 21.319C16.8416 20.9454 16.9939 20.5764 17.1453 20.2055L17.7089 18.7454C17.7819 18.5776 17.8255 18.3985 17.8379 18.216C17.8491 17.9802 17.7768 17.748 17.6336 17.5602C17.0333 16.7262 16.4491 15.8815 15.8694 15.0323C15.8235 14.9537 15.7544 14.8913 15.6717 14.8534C15.5889 14.8156 15.4965 14.8042 15.407 14.8209C15.3702 14.8206 15.3343 14.8327 15.3052 14.8553C15.2761 14.8779 15.2555 14.9097 15.2466 14.9454C15.157 15.2007 15.0504 15.4515 14.9501 15.7032C14.7075 16.3201 14.465 16.9371 14.2225 17.554C14.0719 17.932 13.9232 18.3073 13.7745 18.6845C13.615 19.0849 13.4537 19.4862 13.296 19.8866C13.1383 20.287 12.994 20.6686 12.839 21.0574C12.684 21.4462 12.5218 21.8296 12.3677 22.2219C12.2037 22.6367 12.0442 23.0532 11.8812 23.468C11.7297 23.8505 11.5738 24.2312 11.4251 24.6137C11.2459 25.0804 11.0667 25.548 10.8875 26.0147C10.6697 26.5666 10.4466 27.1157 10.2298 27.6702C10.0452 28.1405 9.87139 28.6152 9.6877 29.0864C9.46907 29.6472 9.24835 30.2062 9.02554 30.7634C8.96999 30.9004 8.90906 31.0321 8.84634 31.1665C8.83022 31.1655 8.81406 31.1655 8.79795 31.1665C8.68326 30.8019 8.5623 30.44 8.45209 30.0727C8.37682 29.821 8.3132 29.5648 8.2469 29.3095C8.19493 29.107 8.14654 28.9046 8.09995 28.7003C8.06052 28.5283 8.03006 28.3564 7.99422 28.1826C7.94852 27.9586 7.89117 27.7347 7.85892 27.5071C7.81412 27.2115 7.80874 26.9114 7.75498 26.6185C7.6591 26.0927 7.67075 25.5597 7.61789 25.0321C7.53456 24.207 7.67075 23.3865 7.69674 22.565C7.69992 22.531 7.70531 22.4972 7.71287 22.4638C7.75826 22.1485 7.80336 21.8329 7.84817 21.517C7.84817 21.4901 7.84816 21.4623 7.85354 21.4354C7.88938 21.2016 7.92074 20.966 7.96554 20.7331C8.00228 20.5334 8.05515 20.3363 8.09995 20.1383C8.16357 19.849 8.21733 19.5552 8.29886 19.2685C8.41893 18.8457 8.55782 18.4283 8.69043 18.009C8.89407 17.3628 9.14165 16.7313 9.43144 16.1189C9.70025 15.5554 9.99235 15.0045 10.28 14.4518C10.4153 14.1929 10.4198 13.9493 10.2486 13.7065C10.047 13.4243 9.84809 13.1395 9.64917 12.8546C9.24865 12.2795 8.85171 11.7026 8.44761 11.1302C8.41392 11.0867 8.37053 11.0517 8.3209 11.0279C8.27127 11.0042 8.21677 10.9924 8.16176 10.9934C8.10675 10.9944 8.05274 11.0083 8.00405 11.034C7.95536 11.0596 7.91333 11.0962 7.88132 11.141C7.61878 11.5709 7.35356 11.9982 7.10357 12.4345C6.59373 13.3253 6.14846 14.2516 5.77118 15.2061C5.62154 15.5832 5.47818 15.9639 5.34467 16.3482C5.204 16.7522 5.06422 17.1544 4.94953 17.5683C4.80975 18.0646 4.69058 18.568 4.5723 19.0687C4.49166 19.4127 4.4137 19.7567 4.35725 20.1052C4.2793 20.6024 4.20941 21.1004 4.15565 21.5994C4.09562 22.1619 4.03021 22.7254 4.01856 23.2888C3.99974 24.3298 3.96748 25.3805 4.07053 26.4259C4.11533 26.8792 4.14579 27.3342 4.19239 27.7884C4.21658 28.024 4.2569 28.2587 4.29722 28.4934C4.33754 28.7281 4.38682 28.9601 4.42983 29.193C4.49435 29.5263 4.5508 29.8604 4.62517 30.1918C4.68878 30.4686 4.76763 30.7436 4.84828 31.0178C5.02748 31.6153 5.19325 32.2181 5.39843 32.8094C5.59735 33.3728 5.83121 33.9219 6.06597 34.4711C6.52792 35.5453 7.07504 36.5808 7.70211 37.5678C8.55793 38.937 9.55011 40.2162 10.6635 41.3857C12.5131 43.3448 14.6754 44.9831 17.062 46.2337C18.1686 46.814 19.3187 47.3073 20.5018 47.7091C20.9946 47.8775 21.4991 48.0173 22.0045 48.157C22.4686 48.2815 22.9399 48.3845 23.4067 48.4938C23.5788 48.5332 23.7535 48.5655 23.9264 48.5986C24.1746 48.6443 24.421 48.6936 24.6692 48.7276C24.9864 48.7733 25.3036 48.8172 25.6217 48.8414C26.2319 48.8978 26.8412 48.965 27.4532 48.9874C28.1261 49.0134 28.8026 49.0152 29.4764 48.9874C30.1287 48.9623 30.7801 48.8978 31.4297 48.836C31.9378 48.7841 32.4431 48.7169 32.9458 48.6282C33.4279 48.5431 33.9028 48.4302 34.3794 48.3165C34.7952 48.217 35.2056 48.1015 35.6169 47.9886C36.4923 47.7392 37.3504 47.4328 38.1858 47.0713C39.0685 46.6987 39.9274 46.2718 40.7573 45.793C41.8843 45.1448 42.9587 44.4092 43.9705 43.5929C44.9786 42.7799 45.9198 41.8872 46.7849 40.9235C47.5827 40.0383 48.3132 39.0948 48.9703 38.1008C49.7823 36.8776 50.4817 35.5832 51.0598 34.2337C51.4264 33.3794 51.7421 32.5042 52.0051 31.6126C52.2023 30.9416 52.3815 30.2689 52.5114 29.5791C52.5445 29.4062 52.5822 29.2324 52.6153 29.0596C52.6583 28.8195 52.7049 28.5803 52.7435 28.3375C52.7877 28.0216 52.825 27.7045 52.8555 27.3862C52.903 26.8917 52.963 26.4008 52.98 25.9019C53.0033 25.2085 53.0042 24.5197 52.9908 23.8326ZM16.0844 39.8673C15.9303 40.0805 15.7699 40.2892 15.5862 40.5302L15.1104 40.1316C15.2798 39.8834 15.4456 39.6559 15.6391 39.4149C15.7914 39.5287 15.9339 39.6273 16.0692 39.7365C16.0832 39.755 16.0919 39.7769 16.0946 39.7999C16.0973 39.8229 16.0938 39.8461 16.0844 39.8673ZM18.0852 41.546C17.9302 41.1877 18.0951 40.7013 18.4266 40.4451C18.5888 40.3188 18.7582 40.2059 19.0207 40.2149C19.0857 40.214 19.15 40.2289 19.2079 40.2584C19.2658 40.2879 19.3157 40.3311 19.3531 40.3842C19.5592 40.6341 19.6542 40.9029 19.5323 41.2307C19.4824 41.3788 19.403 41.5152 19.2989 41.6318C19.1948 41.7483 19.0682 41.8426 18.9266 41.9088C18.5467 42.0871 18.2752 41.9823 18.0852 41.546ZM21.5797 43.8151L20.9221 43.5786C21.0251 43.2395 21.157 42.9098 21.3163 42.5932C21.4722 42.9757 21.5242 43.3753 21.6236 43.7649L21.5797 43.8151ZM29.3751 45.0128C29.3513 45.0058 29.3296 44.9929 29.3122 44.9751C29.2948 44.9574 29.2822 44.9355 29.2757 44.9115C29.2654 44.7713 29.2711 44.6304 29.2927 44.4914C29.4505 44.6302 29.5808 44.7973 29.6771 44.9841C29.5757 45.0029 29.4729 45.0125 29.3698 45.0128H29.3751ZM37.3498 43.0761C37.063 43.1889 37.0971 43.2678 36.9483 42.9184C36.874 42.7446 36.7996 42.5681 36.7261 42.3935C36.7185 42.3681 36.7134 42.3419 36.7109 42.3155C36.7489 42.3149 36.7866 42.3216 36.822 42.3352C37.0908 42.5144 37.3596 42.6936 37.6831 42.905C37.5469 42.9748 37.4519 43.0349 37.348 43.0761H37.3498Z" fill="white"/>
<path d="M39.0075 32.452C38.8113 31.9844 38.6258 31.5123 38.4368 31.042C38.2836 30.6586 38.1366 30.2743 37.9834 29.8918C37.7988 29.4278 37.6044 28.9656 37.4225 28.4998C37.2406 28.0339 37.0641 27.5538 36.8804 27.0835C36.6662 26.5362 36.444 25.9933 36.2281 25.4469C36.074 25.059 35.927 24.6675 35.772 24.2823C35.5874 23.8183 35.393 23.357 35.2093 22.8921C34.9405 22.2068 34.678 21.5197 34.4091 20.8317C34.2228 20.3543 34.0292 19.8804 33.8411 19.403C33.6323 18.8744 33.4289 18.3441 33.221 17.8174C33.0337 17.3453 32.8393 16.8777 32.6538 16.4056C32.4684 15.9335 32.2954 15.4731 32.1162 15.0082C31.8402 14.3086 31.5625 13.6125 31.2847 12.9129C31.1234 12.5053 30.9586 12.0977 30.7964 11.6893C30.6772 11.3874 30.5553 11.0837 30.438 10.78C30.3304 10.4978 30.231 10.213 30.1244 9.92902C30.0025 9.60833 29.8771 9.28853 29.7507 8.96962C29.6244 8.65072 29.4864 8.30315 29.3574 7.9726L28.9837 7.0141C28.8941 6.78299 28.7964 6.55277 28.6988 6.30822C28.6293 6.31408 28.5595 6.31408 28.49 6.30822C28.3368 6.28313 28.2651 6.37182 28.2212 6.49454C28.0751 6.85823 27.93 7.22372 27.7875 7.58831C27.6262 7.99769 27.4685 8.40796 27.3073 8.81823C27.1236 9.28853 26.9372 9.75792 26.7544 10.2309C26.6773 10.4325 26.6128 10.6367 26.5367 10.8374C26.3843 11.236 26.2293 11.6319 26.0752 12.0297L25.5286 13.4244C25.3691 13.8266 25.2079 14.2306 25.052 14.6319C24.8728 15.0897 24.6998 15.551 24.5197 16.0088C24.3324 16.4871 24.138 16.9628 23.9498 17.4421C23.7133 18.0458 23.4839 18.6523 23.2456 19.2542C23.0045 19.8706 22.7554 20.4833 22.5126 21.0978C22.3182 21.5896 22.1291 22.0832 21.9356 22.5732C21.7564 23.0264 21.5772 23.4779 21.4033 23.9312C21.2465 24.3343 21.0951 24.7374 20.9374 25.1423C20.7797 25.5472 20.622 25.9181 20.4688 26.3068C20.3021 26.7279 20.1408 27.1516 19.9787 27.5735C19.8505 27.9014 19.7251 28.2283 19.5979 28.5589C19.4706 28.8894 19.3443 29.2137 19.2126 29.5442C19.0056 30.062 18.7923 30.578 18.5853 31.0976C18.3927 31.5795 18.2081 32.0668 18.0146 32.5496C17.925 32.7646 17.8461 32.9769 17.925 33.2107C18.114 33.2546 38.9574 33.2502 39.1124 33.2107C39.1643 32.9268 39.1339 32.7539 39.0075 32.452ZM33.6753 29.7171H23.0897C23.0898 29.6815 23.0925 29.6458 23.0977 29.6105C23.1103 29.5666 23.13 29.521 23.1461 29.478L28.4613 15.9192C28.4765 15.9181 28.4918 15.9181 28.507 15.9192C28.5133 15.9192 28.5223 15.9192 28.5241 15.9264C28.5572 16.0007 28.593 16.0742 28.6244 16.1485L33.954 29.6992C33.8438 29.7064 33.7595 29.7171 33.6753 29.7171Z" fill="white"/>
</g>
<defs>
<filter id="filter0_d_488_12877" x="0" y="0" width="57" height="57" filterUnits="userSpaceOnUse" color-interpolation-filters="sRGB">
<feFlood flood-opacity="0" result="BackgroundImageFix"/>
<feColorMatrix in="SourceAlpha" type="matrix" values="0 0 0 0 0 0 0 0 0 0 0 0 0 0 0 0 0 0 127 0" result="hardAlpha"/>
<feOffset dy="4"/>
<feGaussianBlur stdDeviation="2"/>
<feComposite in2="hardAlpha" operator="out"/>
<feColorMatrix type="matrix" values="0 0 0 0 0 0 0 0 0 0 0 0 0 0 0 0 0 0 0.25 0"/>
<feBlend mode="normal" in2="BackgroundImageFix" result="effect1_dropShadow_488_12877"/>
<feBlend mode="normal" in="SourceGraphic" in2="effect1_dropShadow_488_12877" result="shape"/>
</filter>
<clipPath id="clip0_488_12877">
<rect width="49" height="49" fill="white" transform="translate(4)"/>
</clipPath>
</defs>
</svg>
